<?xml version="1.0" encoding="UTF-8"?>
<!DOCTYPE svg PUBLIC "-//W3C//DTD SVG 1.1//EN" "http://www.w3.org/Graphics/SVG/1.1/DTD/svg11.dtd">
<svg xmlns="http://www.w3.org/2000/svg" version="1.1" width="297px" height="276px" style="shape-rendering:geometricPrecision; text-rendering:geometricPrecision; image-rendering:optimizeQuality; fill-rule:evenodd; clip-rule:evenodd" xmlns:xlink="http://www.w3.org/1999/xlink">
<g><path style="opacity:1" fill="#fefffe" d="M 293.5,-0.5 C 294.5,-0.5 295.5,-0.5 296.5,-0.5C 296.5,91.5 296.5,183.5 296.5,275.5C 295.5,275.5 294.5,275.5 293.5,275.5C 293.5,263.167 293.5,250.833 293.5,238.5C 293.5,220.167 293.5,201.833 293.5,183.5C 293.5,122.167 293.5,60.8333 293.5,-0.5 Z"/></g>
<g><path style="opacity:1" fill="#989898" d="M -0.5,-0.5 C 97.1667,-0.5 194.833,-0.5 292.5,-0.5C 292.5,17.8333 292.5,36.1667 292.5,54.5C 291.732,53.7375 291.232,52.7375 291,51.5C 290.682,53.0609 289.849,54.2276 288.5,55C 285.813,56.1951 283.146,56.3618 280.5,55.5C 277.604,57.3014 274.437,58.3014 271,58.5C 268.171,57.9854 265.504,57.9854 263,58.5C 261.403,57.1153 259.57,56.4486 257.5,56.5C 257.528,60.3192 255.862,61.3192 252.5,59.5C 250.653,60.511 248.82,61.511 247,62.5C 245.542,61.2532 244.042,61.2532 242.5,62.5C 241.479,61.9984 241.312,61.3317 242,60.5C 243.067,59.8095 244.234,59.3095 245.5,59C 242.472,57.8603 240.305,58.6936 239,61.5C 236.865,59.7215 234.365,59.0548 231.5,59.5C 231.719,60.675 231.386,61.675 230.5,62.5C 224.521,62.1871 218.521,61.8538 212.5,61.5C 211.203,63.3668 209.703,63.7002 208,62.5C 204.185,62.8782 200.685,64.0448 197.5,66C 198.167,66.3333 198.833,66.6667 199.5,67C 196.639,66.9698 194.305,67.8031 192.5,69.5C 188.499,56.5142 184.333,43.5142 180,30.5C 166.661,45.0059 152.827,59.0059 138.5,72.5C 135.052,72.8921 131.886,72.2254 129,70.5C 126.422,73.5714 123.256,74.2381 119.5,72.5C 118.808,73.0253 118.308,73.6919 118,74.5C 116.01,71.2781 113.51,70.7781 110.5,73C 111.833,73.3333 113.167,73.6667 114.5,74C 111.313,74.0006 108.48,74.8339 106,76.5C 104.468,74.4376 102.468,73.1043 100,72.5C 96.8386,75.1166 93.172,76.7832 89,77.5C 88.5172,76.552 88.3505,75.552 88.5,74.5C 86.549,74.2267 85.049,74.8934 84,76.5C 82.5944,75.3318 81.4277,75.6652 80.5,77.5C 80.3309,76.6034 79.9976,75.6034 79.5,74.5C 76.0431,78.1903 72.5431,78.1903 69,74.5C 67.6472,75.7042 65.9806,76.3708 64,76.5C 62.0194,76.3708 60.3528,75.7042 59,74.5C 57.6667,77.1667 56.3333,77.1667 55,74.5C 50.5582,76.1372 45.8915,77.1372 41,77.5C 31.6361,77.3486 21.8027,77.3486 11.5,77.5C 11.741,80.999 10.9076,81.3323 9,78.5C 8.33333,79.1667 7.66667,79.8333 7,80.5C 4.91025,77.8527 2.41025,77.1861 -0.5,78.5C -0.5,52.1667 -0.5,25.8333 -0.5,-0.5 Z"/></g>
<g><path style="opacity:1" fill="#000000" d="M 192.5,69.5 C 194.925,80.0982 197.925,90.4315 201.5,100.5C 203.565,110.105 206.231,119.438 209.5,128.5C 211.595,138.103 214.261,147.436 217.5,156.5C 219.037,163.65 221.037,170.65 223.5,177.5C 223.433,178.959 223.766,180.292 224.5,181.5C 224.557,182.609 224.89,183.609 225.5,184.5C 225.595,186.786 226.262,188.786 227.5,190.5C 231.72,207.06 236.387,223.393 241.5,239.5C 241.899,243.116 242.899,246.45 244.5,249.5C 244.959,252.877 245.626,256.211 246.5,259.5C 232.212,256.345 217.879,253.345 203.5,250.5C 163.61,240.528 123.61,230.528 83.5,220.5C 70.4592,217.656 57.4592,214.656 44.5,211.5C 38.8737,210.01 33.2071,208.677 27.5,207.5C 22.6459,205.703 17.6459,204.369 12.5,203.5C 32.5,182.5 52.5,161.5 72.5,140.5C 82.1667,131.5 91.5,122.167 100.5,112.5C 113.504,99.4956 126.171,86.1623 138.5,72.5C 152.827,59.0059 166.661,45.0059 180,30.5C 184.333,43.5142 188.499,56.5142 192.5,69.5 Z"/></g>
<g><path style="opacity:1" fill="#9e9e9e" d="M 292.5,54.5 C 292.5,66.1667 292.5,77.8333 292.5,89.5C 289.593,89.5752 286.927,90.4086 284.5,92C 288.232,92.9717 287.899,93.4717 283.5,93.5C 278.226,93.313 278.226,92.813 283.5,92C 281.782,91.654 280.115,91.154 278.5,90.5C 276.65,91.2418 275.984,92.2418 276.5,93.5C 273.077,92.771 269.744,92.4377 266.5,92.5C 265.149,93.3655 264.316,94.3655 264,95.5C 261.96,92.8537 259.96,92.8537 258,95.5C 256.038,95.9694 254.205,95.3027 252.5,93.5C 250.548,95.533 248.382,95.8663 246,94.5C 243.056,95.2566 240.056,95.9233 237,96.5C 234.394,96.5215 231.727,96.1882 229,95.5C 221.664,97.0838 221.831,98.2505 229.5,99C 225.616,100.231 221.616,100.064 217.5,98.5C 212.153,99.4024 206.819,100.069 201.5,100.5C 197.925,90.4315 194.925,80.0982 192.5,69.5C 194.305,67.8031 196.639,66.9698 199.5,67C 198.833,66.6667 198.167,66.3333 197.5,66C 200.685,64.0448 204.185,62.8782 208,62.5C 209.703,63.7002 211.203,63.3668 212.5,61.5C 218.521,61.8538 224.521,62.1871 230.5,62.5C 231.386,61.675 231.719,60.675 231.5,59.5C 234.365,59.0548 236.865,59.7215 239,61.5C 240.305,58.6936 242.472,57.8603 245.5,59C 244.234,59.3095 243.067,59.8095 242,60.5C 241.312,61.3317 241.479,61.9984 242.5,62.5C 244.042,61.2532 245.542,61.2532 247,62.5C 248.82,61.511 250.653,60.511 252.5,59.5C 255.862,61.3192 257.528,60.3192 257.5,56.5C 259.57,56.4486 261.403,57.1153 263,58.5C 265.504,57.9854 268.171,57.9854 271,58.5C 274.437,58.3014 277.604,57.3014 280.5,55.5C 283.146,56.3618 285.813,56.1951 288.5,55C 289.849,54.2276 290.682,53.0609 291,51.5C 291.232,52.7375 291.732,53.7375 292.5,54.5 Z"/></g>
<g><path style="opacity:1" fill="#9e9e9e" d="M 138.5,72.5 C 126.171,86.1623 113.504,99.4956 100.5,112.5C 100.217,111.711 99.7172,111.044 99,110.5C 97.8869,111.711 96.7202,111.711 95.5,110.5C 94.8333,111.167 94.1667,111.833 93.5,112.5C 89.3782,111.845 85.2115,111.511 81,111.5C 80.6667,112.167 80.3333,112.833 80,113.5C 79.3109,112.643 78.4776,111.977 77.5,111.5C 76.0367,113.565 74.0367,114.565 71.5,114.5C 67.5237,113.558 63.5237,113.391 59.5,114C 57.2686,114.622 55.4352,115.789 54,117.5C 51.776,114.52 48.9427,114.187 45.5,116.5C 44.5224,116.023 43.6891,115.357 43,114.5C 39.3548,115.093 36.0215,116.426 33,118.5C 31.9805,117.313 30.8139,116.313 29.5,115.5C 28.6143,116.325 28.281,117.325 28.5,118.5C 21.2931,118.254 14.1265,117.921 7,117.5C 4.76346,118.056 2.76346,119.056 1,120.5C 0.721579,119.584 0.221579,118.918 -0.5,118.5C -0.5,105.167 -0.5,91.8333 -0.5,78.5C 2.41025,77.1861 4.91025,77.8527 7,80.5C 7.66667,79.8333 8.33333,79.1667 9,78.5C 10.9076,81.3323 11.741,80.999 11.5,77.5C 21.8027,77.3486 31.6361,77.3486 41,77.5C 45.8915,77.1372 50.5582,76.1372 55,74.5C 56.3333,77.1667 57.6667,77.1667 59,74.5C 60.3528,75.7042 62.0194,76.3708 64,76.5C 65.9806,76.3708 67.6472,75.7042 69,74.5C 72.5431,78.1903 76.0431,78.1903 79.5,74.5C 79.9976,75.6034 80.3309,76.6034 80.5,77.5C 81.4277,75.6652 82.5944,75.3318 84,76.5C 85.049,74.8934 86.549,74.2267 88.5,74.5C 88.3505,75.552 88.5172,76.552 89,77.5C 93.172,76.7832 96.8386,75.1166 100,72.5C 102.468,73.1043 104.468,74.4376 106,76.5C 108.48,74.8339 111.313,74.0006 114.5,74C 113.167,73.6667 111.833,73.3333 110.5,73C 113.51,70.7781 116.01,71.2781 118,74.5C 118.308,73.6919 118.808,73.0253 119.5,72.5C 123.256,74.2381 126.422,73.5714 129,70.5C 131.886,72.2254 135.052,72.8921 138.5,72.5 Z"/></g>
<g><path style="opacity:1" fill="#a4a4a4" d="M 292.5,89.5 C 292.5,99.8333 292.5,110.167 292.5,120.5C 290.718,119.28 288.718,118.614 286.5,118.5C 286.719,119.675 286.386,120.675 285.5,121.5C 283.172,119.2 281.005,119.2 279,121.5C 278.439,120.978 277.772,120.645 277,120.5C 272.873,121.239 268.706,121.739 264.5,122C 266.645,122.743 266.811,123.576 265,124.5C 263.739,124.241 262.739,123.574 262,122.5C 261.667,123.167 261.333,123.833 261,124.5C 257.991,121.331 254.824,121.498 251.5,125C 243.72,126.303 236.053,126.469 228.5,125.5C 228.344,129.135 227.178,129.468 225,126.5C 222.931,129.477 221.097,129.644 219.5,127C 217.833,126.833 216.167,126.667 214.5,126.5C 212.36,126.556 210.694,127.223 209.5,128.5C 206.231,119.438 203.565,110.105 201.5,100.5C 206.819,100.069 212.153,99.4024 217.5,98.5C 221.616,100.064 225.616,100.231 229.5,99C 221.831,98.2505 221.664,97.0838 229,95.5C 231.727,96.1882 234.394,96.5215 237,96.5C 240.056,95.9233 243.056,95.2566 246,94.5C 248.382,95.8663 250.548,95.533 252.5,93.5C 254.205,95.3027 256.038,95.9694 258,95.5C 259.96,92.8537 261.96,92.8537 264,95.5C 264.316,94.3655 265.149,93.3655 266.5,92.5C 269.744,92.4377 273.077,92.771 276.5,93.5C 275.984,92.2418 276.65,91.2418 278.5,90.5C 280.115,91.154 281.782,91.654 283.5,92C 278.226,92.813 278.226,93.313 283.5,93.5C 287.899,93.4717 288.232,92.9717 284.5,92C 286.927,90.4086 289.593,89.5752 292.5,89.5 Z"/></g>
<g><path style="opacity:1" fill="#a4a4a4" d="M 100.5,112.5 C 91.5,122.167 82.1667,131.5 72.5,140.5C 63.4257,140.458 54.4257,141.124 45.5,142.5C 43.3561,141.047 41.5227,141.38 40,143.5C 38.4667,143.056 36.9667,142.723 35.5,142.5C 23.2979,144.268 11.2979,144.935 -0.5,144.5C -0.5,135.833 -0.5,127.167 -0.5,118.5C 0.221579,118.918 0.721579,119.584 1,120.5C 2.76346,119.056 4.76346,118.056 7,117.5C 14.1265,117.921 21.2931,118.254 28.5,118.5C 28.281,117.325 28.6143,116.325 29.5,115.5C 30.8139,116.313 31.9805,117.313 33,118.5C 36.0215,116.426 39.3548,115.093 43,114.5C 43.6891,115.357 44.5224,116.023 45.5,116.5C 48.9427,114.187 51.776,114.52 54,117.5C 55.4352,115.789 57.2686,114.622 59.5,114C 63.5237,113.391 67.5237,113.558 71.5,114.5C 74.0367,114.565 76.0367,113.565 77.5,111.5C 78.4776,111.977 79.3109,112.643 80,113.5C 80.3333,112.833 80.6667,112.167 81,111.5C 85.2115,111.511 89.3782,111.845 93.5,112.5C 94.1667,111.833 94.8333,111.167 95.5,110.5C 96.7202,111.711 97.8869,111.711 99,110.5C 99.7172,111.044 100.217,111.711 100.5,112.5 Z"/></g>
<g><path style="opacity:1" fill="#ababab" d="M 292.5,120.5 C 292.832,129.525 292.498,138.525 291.5,147.5C 287.043,147.652 282.543,147.652 278,147.5C 272.664,148.01 267.498,149.01 262.5,150.5C 260.167,149.833 257.833,149.167 255.5,148.5C 254.5,148.833 253.5,149.167 252.5,149.5C 254.078,150.298 255.744,150.798 257.5,151C 254.287,151.703 251.121,151.536 248,150.5C 247.151,151.983 245.485,153.316 243,154.5C 242.585,152.709 241.585,151.376 240,150.5C 239.667,151.167 239.333,151.833 239,152.5C 235.591,151.378 232.091,151.211 228.5,152C 227.663,153.011 227.33,154.178 227.5,155.5C 223.958,155.187 220.625,155.521 217.5,156.5C 214.261,147.436 211.595,138.103 209.5,128.5C 210.694,127.223 212.36,126.556 214.5,126.5C 216.167,126.667 217.833,126.833 219.5,127C 221.097,129.644 222.931,129.477 225,126.5C 227.178,129.468 228.344,129.135 228.5,125.5C 236.053,126.469 243.72,126.303 251.5,125C 254.824,121.498 257.991,121.331 261,124.5C 261.333,123.833 261.667,123.167 262,122.5C 262.739,123.574 263.739,124.241 265,124.5C 266.811,123.576 266.645,122.743 264.5,122C 268.706,121.739 272.873,121.239 277,120.5C 277.772,120.645 278.439,120.978 279,121.5C 281.005,119.2 283.172,119.2 285.5,121.5C 286.386,120.675 286.719,119.675 286.5,118.5C 288.718,118.614 290.718,119.28 292.5,120.5 Z"/></g>
<g><path style="opacity:1" fill="#b1b1b1" d="M 292.5,-0.5 C 292.833,-0.5 293.167,-0.5 293.5,-0.5C 293.5,60.8333 293.5,122.167 293.5,183.5C 292.833,183.5 292.5,183.167 292.5,182.5C 292.5,181.5 292.5,180.5 292.5,179.5C 269.864,178.944 246.864,178.277 223.5,177.5C 221.037,170.65 219.037,163.65 217.5,156.5C 220.625,155.521 223.958,155.187 227.5,155.5C 227.33,154.178 227.663,153.011 228.5,152C 232.091,151.211 235.591,151.378 239,152.5C 239.333,151.833 239.667,151.167 240,150.5C 241.585,151.376 242.585,152.709 243,154.5C 245.485,153.316 247.151,151.983 248,150.5C 251.121,151.536 254.287,151.703 257.5,151C 255.744,150.798 254.078,150.298 252.5,149.5C 253.5,149.167 254.5,148.833 255.5,148.5C 257.833,149.167 260.167,149.833 262.5,150.5C 267.498,149.01 272.664,148.01 278,147.5C 282.543,147.652 287.043,147.652 291.5,147.5C 292.498,138.525 292.832,129.525 292.5,120.5C 292.5,110.167 292.5,99.8333 292.5,89.5C 292.5,77.8333 292.5,66.1667 292.5,54.5C 292.5,36.1667 292.5,17.8333 292.5,-0.5 Z"/></g>
<g><path style="opacity:1" fill="#adadad" d="M 72.5,140.5 C 52.5,161.5 32.5,182.5 12.5,203.5C 11.8826,203.389 11.3826,203.056 11,202.5C 7.25922,204.285 3.42589,205.951 -0.5,207.5C -0.5,186.5 -0.5,165.5 -0.5,144.5C 11.2979,144.935 23.2979,144.268 35.5,142.5C 36.9667,142.723 38.4667,143.056 40,143.5C 41.5227,141.38 43.3561,141.047 45.5,142.5C 54.4257,141.124 63.4257,140.458 72.5,140.5 Z"/></g>
<g><path style="opacity:1" fill="#a3a3a3" d="M 223.5,177.5 C 246.864,178.277 269.864,178.944 292.5,179.5C 292.5,180.5 292.5,181.5 292.5,182.5C 269.841,181.759 247.174,181.425 224.5,181.5C 223.766,180.292 223.433,178.959 223.5,177.5 Z"/></g>
<g><path style="opacity:1" fill="#969696" d="M 224.5,181.5 C 247.174,181.425 269.841,181.759 292.5,182.5C 292.5,183.167 292.833,183.5 293.5,183.5C 293.5,201.833 293.5,220.167 293.5,238.5C 293.167,238.5 292.833,238.5 292.5,238.5C 292.5,236.167 292.5,233.833 292.5,231.5C 292.5,218.833 292.5,206.167 292.5,193.5C 292.5,191.167 292.5,188.833 292.5,186.5C 270.204,185.269 247.87,184.602 225.5,184.5C 224.89,183.609 224.557,182.609 224.5,181.5 Z"/></g>
<g><path style="opacity:1" fill="#828282" d="M 225.5,184.5 C 247.87,184.602 270.204,185.269 292.5,186.5C 292.5,188.833 292.5,191.167 292.5,193.5C 270.665,192.058 248.998,191.058 227.5,190.5C 226.262,188.786 225.595,186.786 225.5,184.5 Z"/></g>
<g><path style="opacity:1" fill="#717171" d="M 227.5,190.5 C 248.998,191.058 270.665,192.058 292.5,193.5C 292.5,206.167 292.5,218.833 292.5,231.5C 290.823,232.412 288.989,233.079 287,233.5C 271.562,234.76 256.395,236.76 241.5,239.5C 236.387,223.393 231.72,207.06 227.5,190.5 Z"/></g>
<g><path style="opacity:1" fill="#9f9f9f" d="M 12.5,203.5 C 17.6459,204.369 22.6459,205.703 27.5,207.5C 28.9559,210.431 28.1226,211.098 25,209.5C 24.5439,210.744 25.0439,211.577 26.5,212C 23.3543,212.11 22.3543,213.443 23.5,216C 21.6191,217.102 19.9525,218.435 18.5,220C 19.8839,221.957 19.2172,222.957 16.5,223C 19.2321,223.413 21.8987,224.08 24.5,225C 23.5,225.333 22.5,225.667 21.5,226C 25.2374,229.203 29.2374,231.203 33.5,232C 32.5,232.333 31.5,232.667 30.5,233C 32.76,234.689 35.26,235.856 38,236.5C 38.3333,236.167 38.6667,235.833 39,235.5C 39.3333,236.5 39.6667,237.5 40,238.5C 40.3333,238.167 40.6667,237.833 41,237.5C 42.5626,240.044 44.0626,240.044 45.5,237.5C 46.5,238 47.5,238.5 48.5,239C 48.1667,239.333 47.8333,239.667 47.5,240C 52.0152,241.005 56.3486,242.505 60.5,244.5C 85.951,251.01 111.284,255.843 136.5,259C 153.453,260.941 170.453,262.274 187.5,263C 218.741,263.382 250.074,263.549 281.5,263.5C 282.807,262.184 284.307,261.184 286,260.5C 287.975,260.488 290.142,260.822 292.5,261.5C 292.5,263.167 292.5,264.833 292.5,266.5C 276.108,266.802 259.608,267.469 243,268.5C 222.72,267.783 202.22,266.783 181.5,265.5C 177.301,265.283 172.968,265.616 168.5,266.5C 164.202,264.945 159.869,264.612 155.5,265.5C 152.095,264.752 148.762,263.752 145.5,262.5C 144.393,263.022 143.226,263.355 142,263.5C 125.761,261.086 109.595,258.42 93.5,255.5C 92.5581,255.608 91.7247,255.941 91,256.5C 89.6996,253.919 87.8662,253.252 85.5,254.5C 71.5989,251.063 57.2655,248.229 42.5,246C 40.8707,245.415 39.3707,244.581 38,243.5C 37.1268,243.735 36.2935,244.069 35.5,244.5C 34.4096,243.273 33.0762,242.44 31.5,242C 25.7222,241.139 20.0555,239.806 14.5,238C 14.8333,237.667 15.1667,237.333 15.5,237C 13.1053,236.319 10.772,235.485 8.5,234.5C 9.72865,233.719 11.062,233.219 12.5,233C 10.6768,230.509 8.01016,228.176 4.5,226C 5.71118,225.107 5.71118,224.274 4.5,223.5C 3.06028,222.048 1.39362,221.048 -0.5,220.5C -0.5,216.167 -0.5,211.833 -0.5,207.5C 3.42589,205.951 7.25922,204.285 11,202.5C 11.3826,203.056 11.8826,203.389 12.5,203.5 Z"/></g>
<g><path style="opacity:1" fill="#999999" d="M 27.5,207.5 C 33.2071,208.677 38.8737,210.01 44.5,211.5C 44.1193,212.931 43.1193,213.764 41.5,214C 42.5,214.333 43.5,214.667 44.5,215C 43.3595,215.741 43.3595,216.575 44.5,217.5C 43.3349,218.584 42.0016,219.417 40.5,220C 41.8333,220.333 43.1667,220.667 44.5,221C 44.8333,222 45.1667,223 45.5,224C 47.2785,223.021 48.9452,223.354 50.5,225C 48.4873,225.875 48.4873,227.209 50.5,229C 52.2556,229.202 53.9223,229.702 55.5,230.5C 54.624,231.251 53.624,231.751 52.5,232C 54.1667,232.333 55.8333,232.667 57.5,233C 56.8333,233.333 56.1667,233.667 55.5,234C 63.108,236.222 70.2747,239.388 77,243.5C 82.4536,242.748 87.6202,243.915 92.5,247C 104.634,248.302 116.467,250.802 128,254.5C 134.333,253.638 140.833,254.138 147.5,256C 195.938,261.83 244.272,261.663 292.5,255.5C 292.5,257.5 292.5,259.5 292.5,261.5C 290.142,260.822 287.975,260.488 286,260.5C 284.307,261.184 282.807,262.184 281.5,263.5C 250.074,263.549 218.741,263.382 187.5,263C 170.453,262.274 153.453,260.941 136.5,259C 111.284,255.843 85.951,251.01 60.5,244.5C 56.3486,242.505 52.0152,241.005 47.5,240C 47.8333,239.667 48.1667,239.333 48.5,239C 47.5,238.5 46.5,238 45.5,237.5C 44.0626,240.044 42.5626,240.044 41,237.5C 40.6667,237.833 40.3333,238.167 40,238.5C 39.6667,237.5 39.3333,236.5 39,235.5C 38.6667,235.833 38.3333,236.167 38,236.5C 35.26,235.856 32.76,234.689 30.5,233C 31.5,232.667 32.5,232.333 33.5,232C 29.2374,231.203 25.2374,229.203 21.5,226C 22.5,225.667 23.5,225.333 24.5,225C 21.8987,224.08 19.2321,223.413 16.5,223C 19.2172,222.957 19.8839,221.957 18.5,220C 19.9525,218.435 21.6191,217.102 23.5,216C 22.3543,213.443 23.3543,212.11 26.5,212C 25.0439,211.577 24.5439,210.744 25,209.5C 28.1226,211.098 28.9559,210.431 27.5,207.5 Z"/></g>
<g><path style="opacity:1" fill="#8f8f8f" d="M 44.5,211.5 C 57.4592,214.656 70.4592,217.656 83.5,220.5C 83.4226,221.75 82.756,222.583 81.5,223C 85.0552,226.251 90.0552,229.418 96.5,232.5C 97.2868,233.242 97.9535,234.075 98.5,235C 113.565,240.781 129.399,245.281 146,248.5C 151.481,247.319 156.981,247.986 162.5,250.5C 163.192,249.975 163.692,249.308 164,248.5C 171.147,248.811 176.314,249.811 179.5,251.5C 187.305,251.086 195.305,250.752 203.5,250.5C 217.879,253.345 232.212,256.345 246.5,259.5C 245.626,256.211 244.959,252.877 244.5,249.5C 252.836,249.111 261.169,248.611 269.5,248C 277.052,246.567 284.719,245.4 292.5,244.5C 292.5,248.167 292.5,251.833 292.5,255.5C 244.272,261.663 195.938,261.83 147.5,256C 140.833,254.138 134.333,253.638 128,254.5C 116.467,250.802 104.634,248.302 92.5,247C 87.6202,243.915 82.4536,242.748 77,243.5C 70.2747,239.388 63.108,236.222 55.5,234C 56.1667,233.667 56.8333,233.333 57.5,233C 55.8333,232.667 54.1667,232.333 52.5,232C 53.624,231.751 54.624,231.251 55.5,230.5C 53.9223,229.702 52.2556,229.202 50.5,229C 48.4873,227.209 48.4873,225.875 50.5,225C 48.9452,223.354 47.2785,223.021 45.5,224C 45.1667,223 44.8333,222 44.5,221C 43.1667,220.667 41.8333,220.333 40.5,220C 42.0016,219.417 43.3349,218.584 44.5,217.5C 43.3595,216.575 43.3595,215.741 44.5,215C 43.5,214.667 42.5,214.333 41.5,214C 43.1193,213.764 44.1193,212.931 44.5,211.5 Z"/></g>
<g><path style="opacity:1" fill="#838383" d="M 83.5,220.5 C 123.61,230.528 163.61,240.528 203.5,250.5C 195.305,250.752 187.305,251.086 179.5,251.5C 176.314,249.811 171.147,248.811 164,248.5C 163.692,249.308 163.192,249.975 162.5,250.5C 156.981,247.986 151.481,247.319 146,248.5C 129.399,245.281 113.565,240.781 98.5,235C 97.9535,234.075 97.2868,233.242 96.5,232.5C 90.0552,229.418 85.0552,226.251 81.5,223C 82.756,222.583 83.4226,221.75 83.5,220.5 Z"/></g>
<g><path style="opacity:1" fill="#a5a5a5" d="M -0.5,220.5 C 1.39362,221.048 3.06028,222.048 4.5,223.5C 5.71118,224.274 5.71118,225.107 4.5,226C 8.01016,228.176 10.6768,230.509 12.5,233C 11.062,233.219 9.72865,233.719 8.5,234.5C 10.772,235.485 13.1053,236.319 15.5,237C 15.1667,237.333 14.8333,237.667 14.5,238C 20.0555,239.806 25.7222,241.139 31.5,242C 33.0762,242.44 34.4096,243.273 35.5,244.5C 36.2935,244.069 37.1268,243.735 38,243.5C 39.3707,244.581 40.8707,245.415 42.5,246C 57.2655,248.229 71.5989,251.063 85.5,254.5C 87.8662,253.252 89.6996,253.919 91,256.5C 91.7247,255.941 92.5581,255.608 93.5,255.5C 109.595,258.42 125.761,261.086 142,263.5C 143.226,263.355 144.393,263.022 145.5,262.5C 148.762,263.752 152.095,264.752 155.5,265.5C 159.869,264.612 164.202,264.945 168.5,266.5C 172.968,265.616 177.301,265.283 181.5,265.5C 202.22,266.783 222.72,267.783 243,268.5C 259.608,267.469 276.108,266.802 292.5,266.5C 292.5,267.167 292.5,267.833 292.5,268.5C 290.135,269.008 287.801,269.675 285.5,270.5C 253.53,270.39 221.364,270.39 189,270.5C 175.351,269.111 161.684,267.778 148,266.5C 145.698,267.907 143.531,267.741 141.5,266C 129.904,265.147 118.404,263.647 107,261.5C 106.127,261.735 105.293,262.069 104.5,262.5C 99.1388,261.258 93.8054,259.925 88.5,258.5C 87.914,258.709 87.414,259.043 87,259.5C 81.7478,257.428 76.2478,256.261 70.5,256C 71.6956,255.346 71.6956,254.846 70.5,254.5C 69.7065,254.931 68.8732,255.265 68,255.5C 53.3146,252.384 38.4813,249.551 23.5,247C 21.5789,246.64 19.9122,245.806 18.5,244.5C 17.8333,244.833 17.1667,245.167 16.5,245.5C 11.1466,243.741 6.31327,241.074 2,237.5C 1.32924,238.252 0.495904,238.586 -0.5,238.5C -0.5,232.5 -0.5,226.5 -0.5,220.5 Z"/></g>
<g><path style="opacity:1" fill="#ababab" d="M 292.5,268.5 C 292.66,270.199 292.494,271.866 292,273.5C 291.667,273.167 291.333,272.833 291,272.5C 255.577,274.766 220.077,274.933 184.5,273C 181.11,272.754 177.777,272.254 174.5,271.5C 170.268,271.608 166.101,271.941 162,272.5C 139.064,269.93 116.23,266.93 93.5,263.5C 91.5002,264.333 89.8335,264.166 88.5,263C 81.1278,262.196 73.9612,260.696 67,258.5C 63.8548,259.88 61.1881,259.214 59,256.5C 54.557,257.304 50.057,257.137 45.5,256C 33.5849,253.347 21.7516,250.18 10,246.5C 6.66991,247.501 3.16991,247.501 -0.5,246.5C -0.5,243.833 -0.5,241.167 -0.5,238.5C 0.495904,238.586 1.32924,238.252 2,237.5C 6.31327,241.074 11.1466,243.741 16.5,245.5C 17.1667,245.167 17.8333,244.833 18.5,244.5C 19.9122,245.806 21.5789,246.64 23.5,247C 38.4813,249.551 53.3146,252.384 68,255.5C 68.8732,255.265 69.7065,254.931 70.5,254.5C 71.6956,254.846 71.6956,255.346 70.5,256C 76.2478,256.261 81.7478,257.428 87,259.5C 87.414,259.043 87.914,258.709 88.5,258.5C 93.8054,259.925 99.1388,261.258 104.5,262.5C 105.293,262.069 106.127,261.735 107,261.5C 118.404,263.647 129.904,265.147 141.5,266C 143.531,267.741 145.698,267.907 148,266.5C 161.684,267.778 175.351,269.111 189,270.5C 221.364,270.39 253.53,270.39 285.5,270.5C 287.801,269.675 290.135,269.008 292.5,268.5 Z"/></g>
<g><path style="opacity:1" fill="#838383" d="M 292.5,231.5 C 292.5,233.833 292.5,236.167 292.5,238.5C 292.5,240.5 292.5,242.5 292.5,244.5C 284.719,245.4 277.052,246.567 269.5,248C 261.169,248.611 252.836,249.111 244.5,249.5C 242.899,246.45 241.899,243.116 241.5,239.5C 256.395,236.76 271.562,234.76 287,233.5C 288.989,233.079 290.823,232.412 292.5,231.5 Z"/></g>
<g><path style="opacity:1" fill="#b3b3b3" d="M 292.5,238.5 C 292.833,238.5 293.167,238.5 293.5,238.5C 293.5,250.833 293.5,263.167 293.5,275.5C 239.5,275.5 185.5,275.5 131.5,275.5C 110.267,273.013 88.9335,270.346 67.5,267.5C 66.8333,267.833 66.1667,268.167 65.5,268.5C 56.988,266.879 48.488,265.213 40,263.5C 26.3219,262.521 12.8219,260.187 -0.5,256.5C -0.5,253.167 -0.5,249.833 -0.5,246.5C 3.16991,247.501 6.66991,247.501 10,246.5C 21.7516,250.18 33.5849,253.347 45.5,256C 50.057,257.137 54.557,257.304 59,256.5C 61.1881,259.214 63.8548,259.88 67,258.5C 73.9612,260.696 81.1278,262.196 88.5,263C 89.8335,264.166 91.5002,264.333 93.5,263.5C 116.23,266.93 139.064,269.93 162,272.5C 166.101,271.941 170.268,271.608 174.5,271.5C 177.777,272.254 181.11,272.754 184.5,273C 220.077,274.933 255.577,274.766 291,272.5C 291.333,272.833 291.667,273.167 292,273.5C 292.494,271.866 292.66,270.199 292.5,268.5C 292.5,267.833 292.5,267.167 292.5,266.5C 292.5,264.833 292.5,263.167 292.5,261.5C 292.5,259.5 292.5,257.5 292.5,255.5C 292.5,251.833 292.5,248.167 292.5,244.5C 292.5,242.5 292.5,240.5 292.5,238.5 Z"/></g>
<g><path style="opacity:1" fill="#c4c4c4" d="M -0.5,256.5 C 12.8219,260.187 26.3219,262.521 40,263.5C 48.488,265.213 56.988,266.879 65.5,268.5C 66.1667,268.167 66.8333,267.833 67.5,267.5C 88.9335,270.346 110.267,273.013 131.5,275.5C 87.5,275.5 43.5,275.5 -0.5,275.5C -0.5,269.167 -0.5,262.833 -0.5,256.5 Z"/></g>
</svg>
