<?xml version="1.0" encoding="UTF-8"?>
<!DOCTYPE svg PUBLIC "-//W3C//DTD SVG 1.1//EN" "http://www.w3.org/Graphics/SVG/1.1/DTD/svg11.dtd">
<svg xmlns="http://www.w3.org/2000/svg" version="1.1" width="406px" height="155px" style="shape-rendering:geometricPrecision; text-rendering:geometricPrecision; image-rendering:optimizeQuality; fill-rule:evenodd; clip-rule:evenodd" xmlns:xlink="http://www.w3.org/1999/xlink">
<g><path style="opacity:1" fill="#fdfdfd" d="M -0.5,-0.5 C 134.833,-0.5 270.167,-0.5 405.5,-0.5C 405.5,51.1667 405.5,102.833 405.5,154.5C 270.167,154.5 134.833,154.5 -0.5,154.5C -0.5,102.833 -0.5,51.1667 -0.5,-0.5 Z"/></g>
<g><path style="opacity:1" fill="#a2a2a2" d="M 27.5,15.5 C 18.9832,15.1739 10.6499,15.5073 2.5,16.5C 1.95691,16.44 1.62358,16.1067 1.5,15.5C 10.3245,14.1786 18.9912,14.1786 27.5,15.5 Z"/></g>
<g><path style="opacity:1" fill="#a0a0a0" d="M 107.5,15.5 C 116.009,14.1786 124.675,14.1786 133.5,15.5C 133.376,16.1067 133.043,16.44 132.5,16.5C 124.35,15.5073 116.017,15.1739 107.5,15.5 Z"/></g>
<g><path style="opacity:1" fill="#060303" d="M 27.5,15.5 C 44.3005,16.5662 57.6339,23.8996 67.5,37.5C 77.26,23.7543 90.5934,16.421 107.5,15.5C 116.017,15.1739 124.35,15.5073 132.5,16.5C 124.5,28.1667 116.5,39.8333 108.5,51.5C 106.478,53.5313 104.811,55.8646 103.5,58.5C 98.5299,64.985 93.6965,71.6517 89,78.5C 88.6667,92.8333 88.3333,107.167 88,121.5C 86.3729,126.062 83.2062,128.895 78.5,130C 70.8333,130.667 63.1667,130.667 55.5,130C 51.3333,128.5 48.5,125.667 47,121.5C 46.6667,107.167 46.3333,92.8333 46,78.5C 31.2802,57.9537 16.7802,37.287 2.5,16.5C 10.6499,15.5073 18.9832,15.1739 27.5,15.5 Z"/></g>
<g><path style="opacity:1" fill="#f93030" d="M 22.5,26.5 C 36.295,25.7255 47.795,30.7255 57,41.5C 60.3034,46.9686 63.8034,52.3019 67.5,57.5C 71.1966,52.3019 74.6966,46.9686 78,41.5C 87.0092,30.7446 98.5092,25.578 112.5,26C 100.63,42.238 89.1304,58.738 78,75.5C 77.8246,90.0746 77.3246,104.575 76.5,119C 70.2511,119.809 64.0844,119.642 58,118.5C 57.6667,104.167 57.3333,89.8333 57,75.5C 45.9699,58.7496 34.4699,42.4162 22.5,26.5 Z"/></g>
<g><path style="opacity:1" fill="#797979" d="M 299.5,46.5 C 297.934,50.8274 296.934,54.8274 296.5,58.5C 296.5,54.1667 296.5,49.8333 296.5,45.5C 297.791,45.2627 298.791,45.596 299.5,46.5 Z"/></g>
<g><path style="opacity:1" fill="#070303" d="M 299.5,46.5 C 308.496,47.7279 316.996,50.3946 325,54.5C 337.242,46.1233 350.076,45.29 363.5,52C 371.821,58.1358 376.988,66.3025 379,76.5C 379.667,91.1667 379.667,105.833 379,120.5C 377.098,125.4 373.598,128.567 368.5,130C 360.833,130.667 353.167,130.667 345.5,130C 342.705,128.207 340.205,126.04 338,123.5C 335.635,126.869 332.468,129.036 328.5,130C 321.5,130.667 314.5,130.667 307.5,130C 302.793,128.793 299.459,125.96 297.5,121.5C 292.503,126.499 286.503,129.666 279.5,131C 255.957,137.218 237.623,130.385 224.5,110.5C 212.011,109.505 199.344,109.171 186.5,109.5C 186.5,117.5 186.5,125.5 186.5,133.5C 176.434,133.891 167.1,131.558 158.5,126.5C 149.273,132.12 139.273,133.954 128.5,132C 114.91,127.356 107.077,117.856 105,103.5C 104.5,89.1705 104.333,74.8372 104.5,60.5C 105.639,57.5664 107.306,54.8997 109.5,52.5C 110.973,51.928 112.307,51.0946 113.5,50C 120.833,49.3333 128.167,49.3333 135.5,50C 139.487,51.1517 142.82,53.3184 145.5,56.5C 147.577,53.6255 150.244,51.4589 153.5,50C 160.833,49.3333 168.167,49.3333 175.5,50C 180.567,51.5689 184.234,54.7356 186.5,59.5C 186.5,63.1667 186.5,66.8333 186.5,70.5C 199.677,70.8288 212.677,70.4955 225.5,69.5C 233.282,56.9141 244.615,49.7474 259.5,48C 273.261,46.6885 285.595,50.1885 296.5,58.5C 296.934,54.8274 297.934,50.8274 299.5,46.5 Z"/></g>
<g><path style="opacity:1" fill="#868686" d="M 108.5,51.5 C 108.5,52.1667 108.833,52.5 109.5,52.5C 107.306,54.8997 105.639,57.5664 104.5,60.5C 104.672,59.5084 104.338,58.8417 103.5,58.5C 104.811,55.8646 106.478,53.5313 108.5,51.5 Z"/></g>
<g><path style="opacity:1" fill="#fa3030" d="M 257.5,58.5 C 272.433,56.4153 284.6,61.0819 294,72.5C 297.169,79.4611 298.335,86.7944 297.5,94.5C 282.485,94.1673 267.485,94.5007 252.5,95.5C 255.743,106.786 262.743,109.953 273.5,105C 275.081,103.172 276.415,101.172 277.5,99C 299.366,94.8169 302.366,100.484 286.5,116C 277.133,121.192 267.133,122.858 256.5,121C 236.555,115.348 228.388,102.181 232,81.5C 236.615,69.3788 245.115,61.7121 257.5,58.5 Z"/></g>
<g><path style="opacity:1" fill="#fa3030" d="M 340.5,58.5 C 356.81,56.3237 365.977,63.3237 368,79.5C 368.667,92.5 368.667,105.5 368,118.5C 361.59,119.478 355.09,119.811 348.5,119.5C 348.667,106.496 348.5,93.4957 348,80.5C 344.108,74.0427 338.942,72.8761 332.5,77C 330.959,78.5793 329.792,80.4127 329,82.5C 328.667,94.5 328.333,106.5 328,118.5C 321.59,119.478 315.09,119.811 308.5,119.5C 308.167,99.4889 308.5,79.4889 309.5,59.5C 316.203,61.0931 321.369,64.7597 325,70.5C 329.02,64.9194 334.186,60.9194 340.5,58.5 Z"/></g>
<g><path style="opacity:1" fill="#fb3030" d="M 174.5,61.5 C 174.5,80.8333 174.5,100.167 174.5,119.5C 173.5,119.5 172.5,119.5 171.5,119.5C 166.04,118.348 161.873,115.348 159,110.5C 152.189,119.84 143.022,123.34 131.5,121C 122.175,117.869 117.008,111.369 116,101.5C 115.333,88.1667 115.333,74.8333 116,61.5C 122.333,60.1667 128.667,60.1667 135,61.5C 135.333,73.8333 135.667,86.1667 136,98.5C 138.47,105.148 142.97,106.981 149.5,104C 151.378,102.457 152.878,100.624 154,98.5C 155.251,86.2229 155.918,73.8896 156,61.5C 162.266,60.1742 168.432,60.1742 174.5,61.5 Z"/></g>
<g><path style="opacity:1" fill="#d52828" d="M 174.5,61.5 C 175.497,80.9929 175.83,100.66 175.5,120.5C 173.901,120.768 172.568,120.434 171.5,119.5C 172.5,119.5 173.5,119.5 174.5,119.5C 174.5,100.167 174.5,80.8333 174.5,61.5 Z"/></g>
<g><path style="opacity:1" fill="#a4a4a4" d="M 186.5,59.5 C 187.479,62.6248 187.813,65.9581 187.5,69.5C 200.167,69.5 212.833,69.5 225.5,69.5C 212.677,70.4955 199.677,70.8288 186.5,70.5C 186.5,66.8333 186.5,63.1667 186.5,59.5 Z"/></g>
<g><path style="opacity:1" fill="#050000" d="M 260.5,72.5 C 269.738,70.769 275.071,74.4357 276.5,83.5C 268.833,83.5 261.167,83.5 253.5,83.5C 253.599,78.2801 255.932,74.6134 260.5,72.5 Z"/></g>
<g><path style="opacity:1" fill="#fe3030" d="M 185.5,81.5 C 198.5,81.5 211.5,81.5 224.5,81.5C 224.5,87.1667 224.5,92.8333 224.5,98.5C 211.5,98.5 198.5,98.5 185.5,98.5C 185.5,92.8333 185.5,87.1667 185.5,81.5 Z"/></g>
<g><path style="opacity:1" fill="#a8a8a8" d="M 224.5,110.5 C 212.167,110.5 199.833,110.5 187.5,110.5C 187.825,118.352 187.492,126.018 186.5,133.5C 186.5,125.5 186.5,117.5 186.5,109.5C 199.344,109.171 212.011,109.505 224.5,110.5 Z"/></g>
</svg>
