<?xml version="1.0" encoding="UTF-8"?>
<!DOCTYPE svg PUBLIC "-//W3C//DTD SVG 1.1//EN" "http://www.w3.org/Graphics/SVG/1.1/DTD/svg11.dtd">
<svg xmlns="http://www.w3.org/2000/svg" version="1.1" width="500px" height="500px" style="shape-rendering:geometricPrecision; text-rendering:geometricPrecision; image-rendering:optimizeQuality; fill-rule:evenodd; clip-rule:evenodd" xmlns:xlink="http://www.w3.org/1999/xlink">
<g><path style="opacity:1" fill="#fefefe" d="M -0.5,-0.5 C 166.167,-0.5 332.833,-0.5 499.5,-0.5C 499.5,166.167 499.5,332.833 499.5,499.5C 332.833,499.5 166.167,499.5 -0.5,499.5C -0.5,332.833 -0.5,166.167 -0.5,-0.5 Z"/></g>
<g><path style="opacity:1" fill="#f6f6f6" d="M 241.5,52.5 C 293.31,51.5319 339.976,68.6986 381.5,104C 428.39,149.171 449.39,203.338 444.5,266.5C 439.956,319.076 417.289,363.576 376.5,400C 322.701,442.79 263.701,455.957 199.5,439.5C 144.167,424.378 102.667,391.378 75,340.5C 65.6333,320.533 58.7999,300.7 54.5,281C 54.281,276.895 54.281,272.729 54.5,268.5C 54.0814,267.328 53.4147,266.328 52.5,265.5C 49.0069,198.827 73.3403,142.661 125.5,97C 160.905,69.8671 199.572,55.0338 241.5,52.5 Z"/></g>
<g><path style="opacity:1" fill="#f0f0f0" d="M 247.5,59.5 C 324.409,62.2659 381.409,97.0992 418.5,164C 424.182,175.049 428.682,186.549 432,198.5C 435.718,215.643 439.218,232.81 442.5,250C 439.145,266.842 435.645,283.675 432,300.5C 414.134,358.406 377.634,399.906 322.5,425C 247.826,452.532 180.493,440.532 120.5,389C 85.1266,354.24 64.96,312.073 60,262.5C 57.693,258.531 55.8597,254.365 54.5,250C 55.2906,246.322 56.4573,242.822 58,239.5C 58.6667,238.833 59.3333,238.167 60,237.5C 68.8432,158.644 109.677,103.477 182.5,72C 203.664,64.539 225.33,60.3723 247.5,59.5 Z"/></g>
<g><path style="opacity:1" fill="#eaeaea" d="M 246.5,64.5 C 313.372,65.9386 365.872,93.9386 404,148.5C 420.886,175.003 430.886,204.003 434,235.5C 438.297,241.824 439.63,248.824 438,256.5C 436.217,259.343 434.717,262.343 433.5,265.5C 426.173,327.77 396.173,375.603 343.5,409C 278.463,443.863 214.13,442.863 150.5,406C 100.222,372.323 71.7218,325.156 65,264.5C 61.5693,260.138 59.0693,255.305 57.5,250C 59.0371,244.401 61.5371,239.234 65,234.5C 72.1199,172.413 101.953,124.579 154.5,91C 172.295,81.2937 190.961,73.9604 210.5,69C 222.517,66.4395 234.517,64.9395 246.5,64.5 Z"/></g>
<g><path style="opacity:1" fill="#e4e4e4" d="M 244.5,68.5 C 301.601,68.9049 349.101,90.2382 387,132.5C 411.025,161.87 425.358,195.537 430,233.5C 437.054,243.747 437.054,254.081 430,264.5C 420.846,336.311 383.346,387.144 317.5,417C 247.826,442.4 184.826,431.4 128.5,384C 94.4764,352.12 74.643,312.954 69,266.5C 67.2481,263.328 65.2481,260.328 63,257.5C 60.7016,253.782 60.0349,249.782 61,245.5C 68.8163,235.278 72.8163,223.612 73,210.5C 91.0641,141.109 134.231,95.9422 202.5,75C 216.485,71.8422 230.485,69.6755 244.5,68.5 Z"/></g>
<g><path style="opacity:1" fill="#dddddd" d="M 234.5,73.5 C 297.019,70.6942 348.186,93.0275 388,140.5C 408.576,167.001 420.909,197.001 425,230.5C 433.385,243.038 433.385,255.705 425,268.5C 416.048,329.607 384.882,375.44 331.5,406C 274.314,433.956 217.648,432.956 161.5,403C 111.538,372.328 82.3715,327.828 74,269.5C 71.9164,265.664 69.583,261.997 67,258.5C 62.5247,252.397 62.5247,246.397 67,240.5C 69.3333,237.5 71.6667,234.5 74,231.5C 83.1481,164.722 117.981,116.889 178.5,88C 196.644,80.6778 215.311,75.8445 234.5,73.5 Z"/></g>
<g><path style="opacity:1" fill="#d7d7d7" d="M 240.5,76.5 C 312.021,76.5007 365.855,107.167 402,168.5C 412.03,187.59 418.363,207.924 421,229.5C 428.681,237.868 430.681,247.535 427,258.5C 425.402,262.42 423.402,266.086 421,269.5C 410.773,336.708 374.607,383.874 312.5,411C 247.478,433.309 188.478,422.975 135.5,380C 102.773,349.854 83.2733,312.688 77,268.5C 71.977,262.641 68.477,255.974 66.5,248.5C 69.2293,242.04 72.7293,236.04 77,230.5C 89.4516,155.724 131.618,106.557 203.5,83C 215.823,79.9474 228.156,77.7807 240.5,76.5 Z"/></g>
<g><path style="opacity:1" fill="#d1d1d1" d="M 237.5,80.5 C 307.537,78.4678 360.704,107.134 397,166.5C 407.481,185.609 414.147,205.942 417,227.5C 420.575,232.073 423.742,236.907 426.5,242C 425.565,247.259 424.732,252.759 424,258.5C 421.682,263.136 419.349,267.802 417,272.5C 406.658,334.844 372.825,379.344 315.5,406C 251.562,430.013 192.896,421.013 139.5,379C 106.771,350.047 87.2712,313.88 81,270.5C 78.7202,266.553 76.0535,262.887 73,259.5C 69.1863,253.288 68.853,246.955 72,240.5C 75,236.833 78,233.167 81,229.5C 89.227,175.176 116.394,133.343 162.5,104C 185.866,90.8219 210.866,82.9885 237.5,80.5 Z"/></g>
<g><path style="opacity:1" fill="#cacaca" d="M 245.5,83.5 C 312.125,85.0095 362.292,114.343 396,171.5C 404.798,189.229 410.798,207.896 414,227.5C 417.974,231.467 421.141,235.967 423.5,241C 422.641,247.445 421.808,253.945 421,260.5C 414.35,269.707 410.683,280.041 410,291.5C 391.385,353.115 351.219,392.948 289.5,411C 223.232,424.319 167.399,406.153 122,356.5C 101.78,331.715 89.4468,303.382 85,271.5C 80.5147,266.351 76.848,260.684 74,254.5C 73.1902,249.743 73.5236,245.076 75,240.5C 78.0912,235.986 81.4245,231.653 85,227.5C 95.0005,166.825 127.834,123.325 183.5,97C 203.483,88.9516 224.149,84.4516 245.5,83.5 Z"/></g>
<g><path style="opacity:1" fill="#c4c4c4" d="M 237.5,88.5 C 302.471,86.4041 352.638,112.404 388,166.5C 398.818,184.749 405.818,204.416 409,225.5C 414.451,230.282 418.285,236.115 420.5,243C 419.545,248.473 418.711,253.973 418,259.5C 415.425,264.415 412.425,269.081 409,273.5C 399.378,328.612 369.878,369.112 320.5,395C 267.643,418.934 215.976,416.6 165.5,388C 123.672,360.85 98.5054,322.684 90,273.5C 86.6667,269.5 83.3333,265.5 80,261.5C 76.1801,253.929 75.8468,246.262 79,238.5C 82.3137,234.352 85.8137,230.352 89.5,226.5C 99.5473,168.657 130.881,127.157 183.5,102C 200.924,94.6439 218.924,90.1439 237.5,88.5 Z"/></g>
<g><path style="opacity:1" fill="#bebebe" d="M 236.5,92.5 C 300.88,90.2947 350.38,115.961 385,169.5C 395.071,186.97 401.737,205.636 405,225.5C 409.376,228.874 413.042,232.874 416,237.5C 418.67,251.574 415.003,263.574 405,273.5C 392.742,336.188 356.575,378.355 296.5,400C 231.301,417.31 175.801,401.477 130,352.5C 111.243,329.36 99.2427,303.026 94,273.5C 74.7749,257.342 74.7749,241.342 94,225.5C 107.067,159.135 145.9,116.301 210.5,97C 219.309,95.4532 227.976,93.9532 236.5,92.5 Z"/></g>
<g><path style="opacity:1" fill="#b8b8b8" d="M 241.5,97.5 C 289.049,97.0084 329.382,113.675 362.5,147.5C 380.922,169.707 393.255,195.04 399.5,223.5C 403.614,227.294 407.78,230.961 412,234.5C 414.808,245.8 413.475,256.467 408,266.5C 404.63,269.535 401.63,272.868 399,276.5C 387.814,328.61 358.647,366.11 311.5,389C 252.342,411.75 198.675,403.917 150.5,365.5C 137.503,352.751 126.17,339.251 116.5,325C 116.833,324.667 117.167,324.333 117.5,324C 108.795,309.27 102.962,293.437 100,276.5C 96.0271,271.86 91.6938,267.527 87,263.5C 81.9231,255.148 81.2565,246.482 85,237.5C 89.4764,232.934 94.1431,228.601 99,224.5C 116.817,149.545 164.317,107.212 241.5,97.5 Z"/></g>
<g><path style="opacity:1" fill="#b0b0b0" d="M 230.5,106.5 C 284.09,101.953 327.923,119.619 362,159.5C 376.073,178.027 385.74,198.694 391,221.5C 396.755,224.914 402.255,228.747 407.5,233C 408.893,234.171 409.727,235.671 410,237.5C 412.633,254.643 406.633,267.643 392,276.5C 374.966,341.2 333.633,380.2 268,393.5C 213.97,397.787 169.303,378.787 134,336.5C 121.585,318.09 112.752,298.09 107.5,276.5C 101.402,272.697 95.7356,268.363 90.5,263.5C 82.2565,249.596 84.5899,237.93 97.5,228.5C 100.833,226.5 104.167,224.5 107.5,222.5C 124.34,157.304 165.34,118.638 230.5,106.5 Z"/></g>
<g><path style="opacity:1" fill="#8e8c8d" d="M 236.5,178.5 C 233.457,180.543 231.124,183.21 229.5,186.5C 228.167,187.167 227.167,188.167 226.5,189.5C 214.859,193.808 206.859,201.808 202.5,213.5C 201.194,214.968 199.694,216.301 198,217.5C 195.708,216.399 194.208,217.232 193.5,220C 191.866,220.494 190.199,220.66 188.5,220.5C 188.784,218.585 188.451,216.919 187.5,215.5C 185.167,215.5 182.833,215.5 180.5,215.5C 184.634,214.515 188.968,214.182 193.5,214.5C 193.5,202.5 193.5,190.5 193.5,178.5C 207.833,178.5 222.167,178.5 236.5,178.5 Z"/></g>
<g><path style="opacity:1" fill="#8f8d8d" d="M 237.5,178.5 C 254.833,178.5 272.167,178.5 289.5,178.5C 289.5,189.5 289.5,200.5 289.5,211.5C 289.5,213.167 289.5,214.833 289.5,216.5C 293.833,216.5 298.167,216.5 302.5,216.5C 302.5,217.833 302.5,219.167 302.5,220.5C 298.129,220.125 293.796,219.459 289.5,218.5C 287.816,215.322 285.149,213.655 281.5,213.5C 278.678,212.493 275.678,211.66 272.5,211C 271.186,210.015 270.186,208.848 269.5,207.5C 267.735,204.971 265.735,202.638 263.5,200.5C 260.343,201.127 257.343,202.127 254.5,203.5C 253.351,203.209 252.684,202.376 252.5,201C 252.833,200.167 253.167,199.333 253.5,198.5C 255.333,197.948 257,197.115 258.5,196C 255.587,193.413 252.42,191.246 249,189.5C 249.222,187.544 250.055,185.71 251.5,184C 248.208,183.064 245.208,183.564 242.5,185.5C 241.828,184.051 241.161,182.718 240.5,181.5C 239.1,180.9 238.1,179.9 237.5,178.5 Z"/></g>
<g><path style="opacity:1" fill="#7f7676" d="M 236.5,178.5 C 236.833,178.5 237.167,178.5 237.5,178.5C 238.1,179.9 239.1,180.9 240.5,181.5C 241.161,182.718 241.828,184.051 242.5,185.5C 245.208,183.564 248.208,183.064 251.5,184C 250.055,185.71 249.222,187.544 249,189.5C 252.42,191.246 255.587,193.413 258.5,196C 257,197.115 255.333,197.948 253.5,198.5C 253.167,199.333 252.833,200.167 252.5,201C 252.684,202.376 253.351,203.209 254.5,203.5C 251.833,206.167 249.167,208.833 246.5,211.5C 245.07,211.579 243.736,211.246 242.5,210.5C 241.148,211.524 239.815,212.524 238.5,213.5C 235.813,213.664 233.146,213.497 230.5,213C 228.431,211.477 226.097,210.643 223.5,210.5C 223.113,205.717 223.779,200.884 225.5,196C 225.833,195.5 226.167,195 226.5,194.5C 228.516,195.706 230.516,195.706 232.5,194.5C 231.993,191.578 230.993,188.911 229.5,186.5C 231.124,183.21 233.457,180.543 236.5,178.5 Z"/></g>
<g><path style="opacity:1" fill="#45413f" d="M 240.5,181.5 C 240.665,184.518 240.498,187.518 240,190.5C 237.916,193.033 235.916,193.033 234,190.5C 232.88,185.12 235.047,182.12 240.5,181.5 Z"/></g>
<g><path style="opacity:1" fill="#746a6a" d="M 229.5,186.5 C 230.993,188.911 231.993,191.578 232.5,194.5C 230.516,195.706 228.516,195.706 226.5,194.5C 226.167,195 225.833,195.5 225.5,196C 223.779,200.884 223.113,205.717 223.5,210.5C 226.097,210.643 228.431,211.477 230.5,213C 233.146,213.497 235.813,213.664 238.5,213.5C 236.853,215.326 234.853,216.66 232.5,217.5C 227.238,217.195 222.072,217.529 217,218.5C 216.15,214.464 216.65,210.631 218.5,207C 217.956,206.283 217.289,205.783 216.5,205.5C 216.062,205.565 215.728,205.399 215.5,205C 217.301,202.557 218.968,200.057 220.5,197.5C 222.909,195.098 224.909,192.431 226.5,189.5C 227.167,188.167 228.167,187.167 229.5,186.5 Z"/></g>
<g><path style="opacity:1" fill="#322f2c" d="M 153.5,215.5 C 151.457,216.579 150.124,218.246 149.5,220.5C 148.51,226.31 148.177,232.31 148.5,238.5C 146.5,238.5 144.5,238.5 142.5,238.5C 140.631,236.365 139.964,233.698 140.5,230.5C 140.5,229.5 140.5,228.5 140.5,227.5C 140.5,226.833 140.5,226.167 140.5,225.5C 140.5,224.833 140.5,224.167 140.5,223.5C 140.768,221.901 140.434,220.568 139.5,219.5C 139.5,218.833 139.167,218.5 138.5,218.5C 138.5,217.833 138.167,217.5 137.5,217.5C 134.81,211.965 131.477,206.799 127.5,202C 131.609,201.647 135.276,202.814 138.5,205.5C 140.856,208.022 143.023,210.688 145,213.5C 147.133,209.067 150.3,205.567 154.5,203C 157.077,201.75 159.743,201.416 162.5,202C 158.859,206.127 155.859,210.627 153.5,215.5 Z"/></g>
<g><path style="opacity:1" fill="#27273a" d="M 269.5,207.5 C 267.015,209.652 265.349,212.319 264.5,215.5C 263.833,216.167 263.167,216.833 262.5,217.5C 258.59,212.229 253.256,210.229 246.5,211.5C 249.167,208.833 251.833,206.167 254.5,203.5C 257.343,202.127 260.343,201.127 263.5,200.5C 265.735,202.638 267.735,204.971 269.5,207.5 Z"/></g>
<g><path style="opacity:1" fill="#312f3a" d="M 226.5,189.5 C 224.909,192.431 222.909,195.098 220.5,197.5C 212.401,201.602 206.734,207.935 203.5,216.5C 204.025,217.192 204.692,217.692 205.5,218C 204.748,218.671 204.414,219.504 204.5,220.5C 203.833,220.833 203.167,221.167 202.5,221.5C 202.5,220.167 201.833,219.5 200.5,219.5C 201.363,217.579 202.029,215.579 202.5,213.5C 206.859,201.808 214.859,193.808 226.5,189.5 Z"/></g>
<g><path style="opacity:1" fill="#ababab" d="M 289.5,211.5 C 316.863,213.063 344.196,215.563 371.5,219C 384.241,220.907 395.408,226.074 405,234.5C 407.797,245.415 406.464,255.748 401,265.5C 393.57,271.908 385.57,275.574 377,276.5C 374.44,278.291 371.607,279.457 368.5,280C 289.073,290.171 209.406,289.838 129.5,279C 121.539,277.062 113.539,274.395 105.5,271C 90.7578,263.368 86.2578,251.868 92,236.5C 96.9805,231.392 102.814,227.559 109.5,225C 118.636,221.674 127.97,219.174 137.5,217.5C 138.167,217.5 138.5,217.833 138.5,218.5C 138.209,219.649 137.376,220.316 136,220.5C 123.744,222.027 111.911,225.86 100.5,232C 89.6715,243.368 90.0048,254.368 101.5,265C 104.271,267.039 107.271,268.705 110.5,270C 138.71,276.914 167.377,280.914 196.5,282C 244.214,284.458 291.881,283.792 339.5,280C 357.476,279.117 374.809,275.451 391.5,269C 402.835,258.053 405.502,245.72 399.5,232C 391.438,227.09 382.771,223.757 373.5,222C 356.864,219.409 340.197,217.242 323.5,215.5C 318.088,213.42 313.422,214.42 309.5,218.5C 307.772,216.774 305.772,215.441 303.5,214.5C 302.702,214.957 302.369,215.624 302.5,216.5C 298.167,216.5 293.833,216.5 289.5,216.5C 289.5,214.833 289.5,213.167 289.5,211.5 Z"/></g>
<g><path style="opacity:1" fill="#9d9d9d" d="M 171.5,215.5 C 169.167,215.5 166.833,215.5 164.5,215.5C 163.532,217.607 163.198,219.941 163.5,222.5C 158.833,223.167 154.167,223.833 149.5,224.5C 149.5,223.167 149.5,221.833 149.5,220.5C 150.124,218.246 151.457,216.579 153.5,215.5C 159.656,214.399 165.656,214.399 171.5,215.5 Z"/></g>
<g><path style="opacity:1" fill="#7c797a" d="M 269.5,207.5 C 270.186,208.848 271.186,210.015 272.5,211C 275.678,211.66 278.678,212.493 281.5,213.5C 280.167,213.5 279.5,214.167 279.5,215.5C 278.751,216.531 278.085,217.698 277.5,219C 274.518,219.498 271.518,219.665 268.5,219.5C 266.227,219.043 264.894,217.71 264.5,215.5C 265.349,212.319 267.015,209.652 269.5,207.5 Z"/></g>
<g><path style="opacity:1" fill="#302d2a" d="M 323.5,215.5 C 323.833,216.5 324.5,217.167 325.5,217.5C 325.5,217.833 325.5,218.167 325.5,218.5C 325.833,219.167 326.167,219.833 326.5,220.5C 326.5,220.833 326.5,221.167 326.5,221.5C 326.5,221.833 326.5,222.167 326.5,222.5C 326.5,223.167 326.5,223.833 326.5,224.5C 326.5,229.167 326.5,233.833 326.5,238.5C 323.833,238.5 321.167,238.5 318.5,238.5C 318.666,233.156 318.499,227.823 318,222.5C 315.136,219.598 312.969,219.932 311.5,223.5C 310.513,228.305 310.179,233.305 310.5,238.5C 307.833,238.5 305.167,238.5 302.5,238.5C 302.5,235.833 302.5,233.167 302.5,230.5C 302.5,227.167 302.5,223.833 302.5,220.5C 302.5,219.167 302.5,217.833 302.5,216.5C 302.369,215.624 302.702,214.957 303.5,214.5C 305.772,215.441 307.772,216.774 309.5,218.5C 313.422,214.42 318.088,213.42 323.5,215.5 Z"/></g>
<g><path style="opacity:1" fill="#302d2a" d="M 164.5,215.5 C 166.833,215.5 169.167,215.5 171.5,215.5C 171.334,220.511 171.501,225.511 172,230.5C 175.488,233.462 178.155,232.795 180,228.5C 180.499,224.179 180.666,219.846 180.5,215.5C 182.833,215.5 185.167,215.5 187.5,215.5C 187.5,223.167 187.5,230.833 187.5,238.5C 185.071,238.415 183.071,237.415 181.5,235.5C 179.754,237.252 177.754,238.585 175.5,239.5C 170.72,240.359 167.22,238.692 165,234.5C 164.5,228.175 164.334,221.842 164.5,215.5 Z"/></g>
<g><path style="opacity:1" fill="#1e1e31" d="M 281.5,213.5 C 282.806,214.467 283.473,215.801 283.5,217.5C 280.949,220.23 279.616,219.563 279.5,215.5C 279.5,214.167 280.167,213.5 281.5,213.5 Z"/></g>
<g><path style="opacity:1" fill="#a5a5a5" d="M 323.5,215.5 C 340.197,217.242 356.864,219.409 373.5,222C 382.771,223.757 391.438,227.09 399.5,232C 405.502,245.72 402.835,258.053 391.5,269C 374.809,275.451 357.476,279.117 339.5,280C 291.881,283.792 244.214,284.458 196.5,282C 167.377,280.914 138.71,276.914 110.5,270C 107.271,268.705 104.271,267.039 101.5,265C 90.0048,254.368 89.6715,243.368 100.5,232C 111.911,225.86 123.744,222.027 136,220.5C 137.376,220.316 138.209,219.649 138.5,218.5C 139.167,218.5 139.5,218.833 139.5,219.5C 139.586,220.496 139.252,221.329 138.5,222C 128.245,223.73 118.245,226.397 108.5,230C 96.4625,236.588 93.4625,246.088 99.5,258.5C 106.774,264.804 115.108,268.971 124.5,271C 186.131,281.244 248.131,284.244 310.5,280C 333.76,278.897 356.76,275.897 379.5,271C 394.609,263.283 400.442,251.116 397,234.5C 395.028,233.695 393.528,232.361 392.5,230.5C 384.799,227.046 376.466,224.546 367.5,223C 353.557,220.674 339.557,218.841 325.5,217.5C 324.5,217.167 323.833,216.5 323.5,215.5 Z"/></g>
<g><path style="opacity:1" fill="#9f9f9f" d="M 325.5,218.5 C 325.5,218.167 325.5,217.833 325.5,217.5C 339.557,218.841 353.557,220.674 367.5,223C 376.466,224.546 384.799,227.046 392.5,230.5C 393.528,232.361 395.028,233.695 397,234.5C 400.442,251.116 394.609,263.283 379.5,271C 356.76,275.897 333.76,278.897 310.5,280C 248.131,284.244 186.131,281.244 124.5,271C 115.108,268.971 106.774,264.804 99.5,258.5C 93.4625,246.088 96.4625,236.588 108.5,230C 118.245,226.397 128.245,223.73 138.5,222C 139.252,221.329 139.586,220.496 139.5,219.5C 140.434,220.568 140.768,221.901 140.5,223.5C 130.226,225.051 120.56,227.551 111.5,231C 102.635,236.606 99.4684,244.439 102,254.5C 105.327,257.818 108.993,260.818 113,263.5C 115.055,263.152 117.055,263.819 119,265.5C 119.414,265.043 119.914,264.709 120.5,264.5C 125.065,267.396 130.065,269.229 135.5,270C 209.669,282.352 284.003,283.352 358.5,273C 363.604,272.046 368.604,270.713 373.5,269C 380.571,265.264 386.405,260.097 391,253.5C 391.665,247.646 391.499,241.813 390.5,236C 390.39,233.745 389.39,232.078 387.5,231C 379.994,228.165 372.327,225.831 364.5,224C 351.544,221.756 338.544,219.922 325.5,218.5 Z"/></g>
<g><path style="opacity:1" fill="#121325" d="M 246.5,211.5 C 253.256,210.229 258.59,212.229 262.5,217.5C 261.188,219.479 259.521,221.145 257.5,222.5C 256.808,221.975 256.308,221.308 256,220.5C 251.772,224.445 246.772,226.112 241,225.5C 235.675,226.354 231.175,224.854 227.5,221C 229.233,219.811 230.9,218.644 232.5,217.5C 234.853,216.66 236.853,215.326 238.5,213.5C 239.815,212.524 241.148,211.524 242.5,210.5C 243.736,211.246 245.07,211.579 246.5,211.5 Z"/></g>
<g><path style="opacity:1" fill="#989898" d="M 325.5,218.5 C 338.544,219.922 351.544,221.756 364.5,224C 372.327,225.831 379.994,228.165 387.5,231C 389.39,232.078 390.39,233.745 390.5,236C 391.499,241.813 391.665,247.646 391,253.5C 386.405,260.097 380.571,265.264 373.5,269C 368.604,270.713 363.604,272.046 358.5,273C 284.003,283.352 209.669,282.352 135.5,270C 130.065,269.229 125.065,267.396 120.5,264.5C 119.914,264.709 119.414,265.043 119,265.5C 117.055,263.819 115.055,263.152 113,263.5C 108.993,260.818 105.327,257.818 102,254.5C 99.4684,244.439 102.635,236.606 111.5,231C 120.56,227.551 130.226,225.051 140.5,223.5C 140.5,224.167 140.5,224.833 140.5,225.5C 130.136,226.562 120.802,230.062 112.5,236C 107.203,241.467 106.203,247.634 109.5,254.5C 110.934,255.23 112.1,256.23 113,257.5C 129.939,263.861 147.772,268.361 166.5,271C 226.564,279.954 286.564,279.62 346.5,270C 360.164,267.575 371.664,262.075 381,253.5C 382.527,247.585 382.861,241.585 382,235.5C 380.833,233 379,231.167 376.5,230C 360.2,225.005 343.533,221.838 326.5,220.5C 326.167,219.833 325.833,219.167 325.5,218.5 Z"/></g>
<g><path style="opacity:1" fill="#929292" d="M 326.5,221.5 C 326.5,221.167 326.5,220.833 326.5,220.5C 343.533,221.838 360.2,225.005 376.5,230C 379,231.167 380.833,233 382,235.5C 382.861,241.585 382.527,247.585 381,253.5C 371.664,262.075 360.164,267.575 346.5,270C 286.564,279.62 226.564,279.954 166.5,271C 147.772,268.361 129.939,263.861 113,257.5C 112.1,256.23 110.934,255.23 109.5,254.5C 106.203,247.634 107.203,241.467 112.5,236C 120.802,230.062 130.136,226.562 140.5,225.5C 140.5,226.167 140.5,226.833 140.5,227.5C 133.045,228.461 126.545,231.461 121,236.5C 120.814,238.9 120.314,241.234 119.5,243.5C 119.406,241.761 119.239,239.761 119,237.5C 117.916,238.665 117.083,239.998 116.5,241.5C 116.445,245.105 116.778,248.771 117.5,252.5C 118.192,253.025 118.692,253.692 119,254.5C 119.667,245.167 120.333,245.167 121,254.5C 121.833,255.333 122.667,256.167 123.5,257C 180.137,273.228 237.804,278.561 296.5,273C 316.095,271.179 335.428,267.845 354.5,263C 362.602,260.13 368.935,255.13 373.5,248C 371.17,245.827 370.837,243.327 372.5,240.5C 371.883,236.471 370.216,232.971 367.5,230C 354.226,225.578 340.56,222.745 326.5,221.5 Z"/></g>
<g><path style="opacity:1" fill="#4f4848" d="M 216.5,205.5 C 217.289,205.783 217.956,206.283 218.5,207C 216.65,210.631 216.15,214.464 217,218.5C 222.072,217.529 227.238,217.195 232.5,217.5C 230.9,218.644 229.233,219.811 227.5,221C 231.175,224.854 235.675,226.354 241,225.5C 246.772,226.112 251.772,224.445 256,220.5C 256.308,221.308 256.808,221.975 257.5,222.5C 259.521,221.145 261.188,219.479 262.5,217.5C 263.167,216.833 263.833,216.167 264.5,215.5C 264.894,217.71 266.227,219.043 268.5,219.5C 270.5,220.5 272.5,221.5 274.5,222.5C 272.051,221.943 269.718,221.943 267.5,222.5C 271.162,223.313 274.828,223.979 278.5,224.5C 273.266,226.775 267.766,227.108 262,225.5C 253.227,227.151 244.727,229.484 236.5,232.5C 230.342,230.84 224.009,229.673 217.5,229C 216.046,224.991 215.379,220.825 215.5,216.5C 213.263,217.449 210.929,218.116 208.5,218.5C 208.841,213.808 210.341,209.474 213,205.5C 214.117,205.736 215.284,205.736 216.5,205.5 Z"/></g>
<g><path style="opacity:1" fill="#8c8c8c" d="M 326.5,222.5 C 326.5,222.167 326.5,221.833 326.5,221.5C 340.56,222.745 354.226,225.578 367.5,230C 370.216,232.971 371.883,236.471 372.5,240.5C 370.837,243.327 371.17,245.827 373.5,248C 368.935,255.13 362.602,260.13 354.5,263C 335.428,267.845 316.095,271.179 296.5,273C 237.804,278.561 180.137,273.228 123.5,257C 122.667,256.167 121.833,255.333 121,254.5C 120.333,245.167 119.667,245.167 119,254.5C 118.692,253.692 118.192,253.025 117.5,252.5C 116.778,248.771 116.445,245.105 116.5,241.5C 117.083,239.998 117.916,238.665 119,237.5C 119.239,239.761 119.406,241.761 119.5,243.5C 120.314,241.234 120.814,238.9 121,236.5C 126.545,231.461 133.045,228.461 140.5,227.5C 140.5,228.5 140.5,229.5 140.5,230.5C 137.211,232.616 134.044,234.949 131,237.5C 128.503,242.936 129.003,247.936 132.5,252.5C 145.307,259.563 158.974,264.063 173.5,266C 220.864,273.179 268.197,273.179 315.5,266C 327.071,263.502 338.238,260.669 349,257.5C 351.014,255.155 353.347,253.155 356,251.5C 362.846,239.348 359.679,230.848 346.5,226C 339.84,224.723 333.173,223.557 326.5,222.5 Z"/></g>
<g><path style="opacity:1" fill="#25242f" d="M 274.5,222.5 C 276.483,222.157 277.817,222.824 278.5,224.5C 274.828,223.979 271.162,223.313 267.5,222.5C 269.718,221.943 272.051,221.943 274.5,222.5 Z"/></g>
<g><path style="opacity:1" fill="#858585" d="M 326.5,222.5 C 333.173,223.557 339.84,224.723 346.5,226C 359.679,230.848 362.846,239.348 356,251.5C 353.347,253.155 351.014,255.155 349,257.5C 338.238,260.669 327.071,263.502 315.5,266C 268.197,273.179 220.864,273.179 173.5,266C 158.974,264.063 145.307,259.563 132.5,252.5C 129.003,247.936 128.503,242.936 131,237.5C 134.044,234.949 137.211,232.616 140.5,230.5C 139.964,233.698 140.631,236.365 142.5,238.5C 142.367,245.066 145.034,250.233 150.5,254C 164.069,260.477 178.403,264.31 193.5,265.5C 225.5,265.5 257.5,265.5 289.5,265.5C 307.568,263.123 324.901,258.29 341.5,251C 349.542,244.016 349.875,237.016 342.5,230C 337.869,227.012 332.869,225.178 327.5,224.5C 327.167,224.5 326.833,224.5 326.5,224.5C 326.5,223.833 326.5,223.167 326.5,222.5 Z"/></g>
<g><path style="opacity:1" fill="#787878" d="M 202.5,213.5 C 202.029,215.579 201.363,217.579 200.5,219.5C 199.06,220.363 197.726,220.363 196.5,219.5C 195.522,219.977 194.689,220.643 194,221.5C 193.503,224.146 193.336,226.813 193.5,229.5C 192.07,229.421 190.736,229.754 189.5,230.5C 188.513,227.232 188.18,223.898 188.5,220.5C 190.199,220.66 191.866,220.494 193.5,220C 194.208,217.232 195.708,216.399 198,217.5C 199.694,216.301 201.194,214.968 202.5,213.5 Z"/></g>
<g><path style="opacity:1" fill="#787878" d="M 281.5,213.5 C 285.149,213.655 287.816,215.322 289.5,218.5C 293.796,219.459 298.129,220.125 302.5,220.5C 302.5,223.833 302.5,227.167 302.5,230.5C 298.286,229.298 293.952,228.631 289.5,228.5C 289.664,225.813 289.497,223.146 289,220.5C 286.674,220.12 284.841,219.12 283.5,217.5C 283.473,215.801 282.806,214.467 281.5,213.5 Z"/></g>
<g><path style="opacity:1" fill="#7f7f7f" d="M 327.5,224.5 C 332.869,225.178 337.869,227.012 342.5,230C 349.875,237.016 349.542,244.016 341.5,251C 324.901,258.29 307.568,263.123 289.5,265.5C 289.5,263.5 289.5,261.5 289.5,259.5C 301.421,257.77 313.087,254.937 324.5,251C 325.977,248.852 327.977,247.518 330.5,247C 332.905,243.924 334.905,240.591 336.5,237C 334.77,235.005 333.437,232.838 332.5,230.5C 328.554,230.512 326.887,228.512 327.5,224.5 Z"/></g>
<g><path style="opacity:1" fill="#7f7f7f" d="M 149.5,220.5 C 149.5,221.833 149.5,223.167 149.5,224.5C 154.167,223.833 158.833,223.167 163.5,222.5C 163.813,225.247 163.48,227.914 162.5,230.5C 159.688,232.477 157.022,234.644 154.5,237C 155.833,238.333 155.833,239.667 154.5,241C 155.966,242.552 156.966,244.386 157.5,246.5C 167.698,254.837 179.698,259.837 193.5,261.5C 193.5,262.833 193.5,264.167 193.5,265.5C 178.403,264.31 164.069,260.477 150.5,254C 145.034,250.233 142.367,245.066 142.5,238.5C 144.5,238.5 146.5,238.5 148.5,238.5C 148.177,232.31 148.51,226.31 149.5,220.5 Z"/></g>
<g><path style="opacity:1" fill="#6e6e6d" d="M 171.5,215.5 C 172.338,215.842 172.672,216.508 172.5,217.5C 172.335,220.85 172.502,224.183 173,227.5C 174.785,226.76 176.618,226.093 178.5,225.5C 179.48,222.914 179.813,220.247 179.5,217.5C 179.328,216.508 179.662,215.842 180.5,215.5C 180.666,219.846 180.499,224.179 180,228.5C 178.155,232.795 175.488,233.462 172,230.5C 171.501,225.511 171.334,220.511 171.5,215.5 Z"/></g>
<g><path style="opacity:1" fill="#8c8c8c" d="M 172.5,217.5 C 174.833,217.5 177.167,217.5 179.5,217.5C 179.813,220.247 179.48,222.914 178.5,225.5C 176.618,226.093 174.785,226.76 173,227.5C 172.502,224.183 172.335,220.85 172.5,217.5 Z"/></g>
<g><path style="opacity:1" fill="#2b2927" d="M 204.5,220.5 C 206.467,220.261 208.301,220.594 210,221.5C 209.376,232.897 212.709,242.897 220,251.5C 220.689,250.643 221.522,249.977 222.5,249.5C 230.036,255.561 238.369,258.561 247.5,258.5C 244.628,259.783 241.795,259.783 239,258.5C 237.067,261.649 234.234,262.982 230.5,262.5C 225.011,260.871 219.678,258.871 214.5,256.5C 204.55,246.987 200.55,235.32 202.5,221.5C 203.167,221.167 203.833,220.833 204.5,220.5 Z"/></g>
<g><path style="opacity:1" fill="#565455" d="M 279.5,215.5 C 279.616,219.563 280.949,220.23 283.5,217.5C 284.841,219.12 286.674,220.12 289,220.5C 289.497,223.146 289.664,225.813 289.5,228.5C 289.5,234.833 289.5,241.167 289.5,247.5C 288.837,249.042 288.17,250.709 287.5,252.5C 286.833,252.833 286.167,253.167 285.5,253.5C 282.947,253.294 280.447,252.961 278,252.5C 276.349,255.221 274.682,255.554 273,253.5C 272.333,254.833 271.333,255.833 270,256.5C 268.436,256.088 266.936,255.755 265.5,255.5C 269.228,251.262 272.394,246.595 275,241.5C 275.667,240.5 275.667,239.5 275,238.5C 273.634,240.362 272.134,242.028 270.5,243.5C 261.448,247.489 252.448,247.489 243.5,243.5C 243.709,242.914 244.043,242.414 244.5,242C 241.379,241.033 239.046,239.2 237.5,236.5C 236.766,235.292 236.433,233.959 236.5,232.5C 244.727,229.484 253.227,227.151 262,225.5C 267.766,227.108 273.266,226.775 278.5,224.5C 277.817,222.824 276.483,222.157 274.5,222.5C 272.5,221.5 270.5,220.5 268.5,219.5C 271.518,219.665 274.518,219.498 277.5,219C 278.085,217.698 278.751,216.531 279.5,215.5 Z"/></g>
<g><path style="opacity:1" fill="#6d6d6d" d="M 311.5,223.5 C 311.159,228.628 312.159,233.461 314.5,238C 311.968,241.608 308.635,244.274 304.5,246C 299.511,247.662 294.511,249.162 289.5,250.5C 289.5,249.5 289.5,248.5 289.5,247.5C 289.5,241.167 289.5,234.833 289.5,228.5C 293.952,228.631 298.286,229.298 302.5,230.5C 302.5,233.167 302.5,235.833 302.5,238.5C 305.167,238.5 307.833,238.5 310.5,238.5C 310.179,233.305 310.513,228.305 311.5,223.5 Z"/></g>
<g><path style="opacity:1" fill="#777777" d="M 326.5,224.5 C 326.833,224.5 327.167,224.5 327.5,224.5C 326.887,228.512 328.554,230.512 332.5,230.5C 333.437,232.838 334.77,235.005 336.5,237C 334.905,240.591 332.905,243.924 330.5,247C 327.977,247.518 325.977,248.852 324.5,251C 313.087,254.937 301.421,257.77 289.5,259.5C 289.5,256.5 289.5,253.5 289.5,250.5C 294.511,249.162 299.511,247.662 304.5,246C 308.635,244.274 311.968,241.608 314.5,238C 312.159,233.461 311.159,228.628 311.5,223.5C 312.969,219.932 315.136,219.598 318,222.5C 318.499,227.823 318.666,233.156 318.5,238.5C 321.167,238.5 323.833,238.5 326.5,238.5C 326.5,233.833 326.5,229.167 326.5,224.5 Z"/></g>
<g><path style="opacity:1" fill="#767676" d="M 164.5,215.5 C 164.334,221.842 164.5,228.175 165,234.5C 167.22,238.692 170.72,240.359 175.5,239.5C 176.591,242.428 178.591,244.594 181.5,246C 185.167,247.5 188.833,249 192.5,250.5C 193.489,254.107 193.823,257.774 193.5,261.5C 179.698,259.837 167.698,254.837 157.5,246.5C 156.966,244.386 155.966,242.552 154.5,241C 155.833,239.667 155.833,238.333 154.5,237C 157.022,234.644 159.688,232.477 162.5,230.5C 163.48,227.914 163.813,225.247 163.5,222.5C 163.198,219.941 163.532,217.607 164.5,215.5 Z"/></g>
<g><path style="opacity:1" fill="#3d3636" d="M 220.5,197.5 C 218.968,200.057 217.301,202.557 215.5,205C 215.728,205.399 216.062,205.565 216.5,205.5C 215.284,205.736 214.117,205.736 213,205.5C 210.341,209.474 208.841,213.808 208.5,218.5C 210.929,218.116 213.263,217.449 215.5,216.5C 215.379,220.825 216.046,224.991 217.5,229C 224.009,229.673 230.342,230.84 236.5,232.5C 236.433,233.959 236.766,235.292 237.5,236.5C 236.163,239.022 234.496,241.355 232.5,243.5C 235.054,244.899 236.72,246.899 237.5,249.5C 247.889,252.857 257.889,252.023 267.5,247C 268.71,245.961 269.71,244.794 270.5,243.5C 272.134,242.028 273.634,240.362 275,238.5C 275.667,239.5 275.667,240.5 275,241.5C 272.394,246.595 269.228,251.262 265.5,255.5C 254.904,263.277 243.237,265.611 230.5,262.5C 234.234,262.982 237.067,261.649 239,258.5C 241.795,259.783 244.628,259.783 247.5,258.5C 238.369,258.561 230.036,255.561 222.5,249.5C 221.522,249.977 220.689,250.643 220,251.5C 212.709,242.897 209.376,232.897 210,221.5C 208.301,220.594 206.467,220.261 204.5,220.5C 204.414,219.504 204.748,218.671 205.5,218C 204.692,217.692 204.025,217.192 203.5,216.5C 206.734,207.935 212.401,201.602 220.5,197.5 Z"/></g>
<g><path style="opacity:1" fill="#4a4444" d="M 237.5,236.5 C 239.046,239.2 241.379,241.033 244.5,242C 244.043,242.414 243.709,242.914 243.5,243.5C 252.448,247.489 261.448,247.489 270.5,243.5C 269.71,244.794 268.71,245.961 267.5,247C 257.889,252.023 247.889,252.857 237.5,249.5C 236.72,246.899 235.054,244.899 232.5,243.5C 234.496,241.355 236.163,239.022 237.5,236.5 Z"/></g>
<g><path style="opacity:1" fill="#575657" d="M 202.5,221.5 C 200.55,235.32 204.55,246.987 214.5,256.5C 213.175,257.953 212.342,257.619 212,255.5C 210.32,256.603 208.82,256.27 207.5,254.5C 205.002,257.191 202.835,256.858 201,253.5C 199.751,255.992 198.584,255.825 197.5,253C 196.262,253.077 195.262,252.911 194.5,252.5C 195.46,251.188 195.294,249.854 194,248.5C 193.333,242.833 193.333,237.167 194,231.5C 194.374,230.584 194.874,229.75 195.5,229C 197.364,227.594 199.197,227.094 201,227.5C 201.191,225.292 201.691,223.292 202.5,221.5 Z"/></g>
<g><path style="opacity:1" fill="#646363" d="M 187.5,215.5 C 188.451,216.919 188.784,218.585 188.5,220.5C 188.18,223.898 188.513,227.232 189.5,230.5C 190.736,229.754 192.07,229.421 193.5,229.5C 193.336,226.813 193.503,224.146 194,221.5C 194.689,220.643 195.522,219.977 196.5,219.5C 197.726,220.363 199.06,220.363 200.5,219.5C 201.833,219.5 202.5,220.167 202.5,221.5C 201.691,223.292 201.191,225.292 201,227.5C 199.197,227.094 197.364,227.594 195.5,229C 194.874,229.75 194.374,230.584 194,231.5C 193.333,237.167 193.333,242.833 194,248.5C 195.294,249.854 195.46,251.188 194.5,252.5C 195.262,252.911 196.262,253.077 197.5,253C 198.584,255.825 199.751,255.992 201,253.5C 202.835,256.858 205.002,257.191 207.5,254.5C 208.82,256.27 210.32,256.603 212,255.5C 212.342,257.619 213.175,257.953 214.5,256.5C 219.678,258.871 225.011,260.871 230.5,262.5C 243.237,265.611 254.904,263.277 265.5,255.5C 266.936,255.755 268.436,256.088 270,256.5C 271.333,255.833 272.333,254.833 273,253.5C 274.682,255.554 276.349,255.221 278,252.5C 280.447,252.961 282.947,253.294 285.5,253.5C 286.167,253.167 286.833,252.833 287.5,252.5C 288.17,250.709 288.837,249.042 289.5,247.5C 289.5,248.5 289.5,249.5 289.5,250.5C 289.5,253.5 289.5,256.5 289.5,259.5C 289.5,261.5 289.5,263.5 289.5,265.5C 257.5,265.5 225.5,265.5 193.5,265.5C 193.5,264.167 193.5,262.833 193.5,261.5C 193.823,257.774 193.489,254.107 192.5,250.5C 188.833,249 185.167,247.5 181.5,246C 178.591,244.594 176.591,242.428 175.5,239.5C 177.754,238.585 179.754,237.252 181.5,235.5C 183.071,237.415 185.071,238.415 187.5,238.5C 187.5,230.833 187.5,223.167 187.5,215.5 Z"/></g>
</svg>
