<?xml version="1.0" encoding="UTF-8"?>
<!DOCTYPE svg PUBLIC "-//W3C//DTD SVG 1.1//EN" "http://www.w3.org/Graphics/SVG/1.1/DTD/svg11.dtd">
<svg xmlns="http://www.w3.org/2000/svg" version="1.1" width="500px" height="500px" style="shape-rendering:geometricPrecision; text-rendering:geometricPrecision; image-rendering:optimizeQuality; fill-rule:evenodd; clip-rule:evenodd" xmlns:xlink="http://www.w3.org/1999/xlink">
<g><path style="opacity:1" fill="#fefefe" d="M -0.5,-0.5 C 166.167,-0.5 332.833,-0.5 499.5,-0.5C 499.5,166.167 499.5,332.833 499.5,499.5C 332.833,499.5 166.167,499.5 -0.5,499.5C -0.5,332.833 -0.5,166.167 -0.5,-0.5 Z"/></g>
<g><path style="opacity:1" fill="#0d0d0d" d="M 218.5,189.5 C 218.804,190.15 219.137,190.817 219.5,191.5C 217.971,192.763 216.305,193.763 214.5,194.5C 211.816,190.98 209.482,187.147 207.5,183C 201.675,180.255 196.008,177.255 190.5,174C 192.116,172.923 193.949,172.423 196,172.5C 200.083,172.81 203.916,173.81 207.5,175.5C 206.475,169.227 208.475,164.227 213.5,160.5C 213.504,167.405 213.671,174.405 214,181.5C 215.765,184.032 217.265,186.699 218.5,189.5 Z"/></g>
<g><path style="opacity:1" fill="#0a0a0b" d="M 245.5,179.5 C 246.849,184.671 245.183,185.671 240.5,182.5C 236.063,188.668 231.396,189.002 226.5,183.5C 225.315,178.877 224.315,174.21 223.5,169.5C 225.743,168.526 228.076,168.192 230.5,168.5C 230.564,172.22 231.064,175.886 232,179.5C 235.42,182.428 237.587,181.595 238.5,177C 237.766,173.499 237.1,169.999 236.5,166.5C 238.752,165.667 240.919,165.667 243,166.5C 243.791,170.887 244.625,175.221 245.5,179.5 Z"/></g>
<g><path style="opacity:1" fill="#0e0e0e" d="M 265.5,183.5 C 257.336,188.532 251.003,186.866 246.5,178.5C 247.482,166.507 253.482,163.007 264.5,168C 268.849,171.325 269.349,174.825 266,178.5C 261.867,177.6 257.7,176.933 253.5,176.5C 253.352,179.352 254.686,181.019 257.5,181.5C 260.235,179.875 263.235,179.208 266.5,179.5C 266.567,180.959 266.234,182.292 265.5,183.5 Z"/></g>
<g><path style="opacity:1" fill="#0d0d0d" d="M 273.5,187.5 C 270.881,188.803 268.547,188.303 266.5,186C 267.056,185.617 267.389,185.117 267.5,184.5C 269.475,179.217 271.975,174.217 275,169.5C 277.989,172.794 281.822,174.294 286.5,174C 288.833,175.333 289.833,177.333 289.5,180C 288.742,185.349 286.742,190.182 283.5,194.5C 281.668,193.752 280.001,192.752 278.5,191.5C 280.069,187.625 281.736,183.792 283.5,180C 281.05,176.708 278.55,176.875 276,180.5C 275.153,182.854 274.32,185.188 273.5,187.5 Z"/></g>
<g><path style="opacity:1" fill="#ededed" d="M 255.5,170.5 C 257.977,170.051 259.977,170.717 261.5,172.5C 258.894,173.652 256.227,173.818 253.5,173C 254.381,172.292 255.047,171.458 255.5,170.5 Z"/></g>
<g><path style="opacity:1" fill="#3e3c3f" d="M 246.5,178.5 C 251.003,186.866 257.336,188.532 265.5,183.5C 265.842,184.338 266.508,184.672 267.5,184.5C 267.389,185.117 267.056,185.617 266.5,186C 268.547,188.303 270.881,188.803 273.5,187.5C 275.051,190.563 277.218,193.229 280,195.5C 281.454,198.071 282.62,200.738 283.5,203.5C 284.115,207.991 283.115,211.991 280.5,215.5C 279.833,215.833 279.167,216.167 278.5,216.5C 276.833,216.5 275.167,216.5 273.5,216.5C 274.127,211.859 274.46,207.193 274.5,202.5C 270.631,202.851 267.131,204.184 264,206.5C 256.972,202.568 249.972,202.568 243,206.5C 239.869,204.184 236.369,202.851 232.5,202.5C 232.5,203.833 232.5,205.167 232.5,206.5C 231.778,206.082 231.278,205.416 231,204.5C 230.257,206.441 230.424,208.274 231.5,210C 229.808,211.401 229.141,213.234 229.5,215.5C 226.956,215.896 224.789,215.229 223,213.5C 221.156,214.711 220.322,216.044 220.5,217.5C 218.419,216.965 216.253,216.631 214,216.5C 211.714,219.365 210.88,222.698 211.5,226.5C 210.833,226.5 210.5,226.167 210.5,225.5C 210.5,224.833 210.5,224.167 210.5,223.5C 210.5,222.833 210.5,222.167 210.5,221.5C 210.5,220.5 210.5,219.5 210.5,218.5C 210.5,217.5 210.5,216.5 210.5,215.5C 210.5,214.5 210.5,213.5 210.5,212.5C 209.538,205.875 210.871,199.875 214.5,194.5C 216.305,193.763 217.971,192.763 219.5,191.5C 219.137,190.817 218.804,190.15 218.5,189.5C 222.09,188.558 224.757,186.558 226.5,183.5C 231.396,189.002 236.063,188.668 240.5,182.5C 245.183,185.671 246.849,184.671 245.5,179.5C 246.167,179.5 246.5,179.167 246.5,178.5 Z"/></g>
<g><path style="opacity:1" fill="#f4f4f4" d="M 273.5,216.5 C 273.083,217.124 272.416,217.457 271.5,217.5C 265.196,216.747 258.863,216.247 252.5,216C 251.975,215.308 251.308,214.808 250.5,214.5C 244.59,216.126 238.924,215.792 233.5,213.5C 233.007,211.194 232.674,208.861 232.5,206.5C 232.5,205.167 232.5,203.833 232.5,202.5C 236.369,202.851 239.869,204.184 243,206.5C 249.972,202.568 256.972,202.568 264,206.5C 267.131,204.184 270.631,202.851 274.5,202.5C 274.46,207.193 274.127,211.859 273.5,216.5 Z"/></g>
<g><path style="opacity:1" fill="#f2f2f2" d="M 210.5,212.5 C 210.5,213.5 210.5,214.5 210.5,215.5C 195.224,215.364 180.224,216.697 165.5,219.5C 134.173,220.532 104.173,227.365 75.5,240C 71.0166,242.119 69.1833,245.619 70,250.5C 73.7154,256.444 78.8821,260.611 85.5,263C 116.009,271.026 147.009,276.359 178.5,279C 238.273,284.233 297.94,283.233 357.5,276C 368.902,273.983 380.236,271.649 391.5,269C 405.993,265.497 415.66,256.831 420.5,243C 418.159,237.81 414.159,234.476 408.5,233C 386.951,225.758 364.951,221.091 342.5,219C 323.868,217.058 305.201,215.558 286.5,214.5C 285.757,213.818 285.091,213.151 284.5,212.5C 310.592,213.495 336.592,215.662 362.5,219C 383.8,221.492 404.466,226.492 424.5,234C 432.14,236.643 437.473,241.643 440.5,249C 438.994,253.844 435.994,257.51 431.5,260C 413.496,268.889 394.496,274.556 374.5,277C 290.8,288.393 207.134,288.059 123.5,276C 103.408,273.811 84.0746,268.811 65.5,261C 52.7839,254.159 52.4506,246.826 64.5,239C 92.4004,227.485 121.4,220.151 151.5,217C 171.109,214.687 190.776,213.187 210.5,212.5 Z"/></g>
<g><path style="opacity:1" fill="#e6e6e6" d="M 283.5,203.5 C 285.005,206.361 285.338,209.361 284.5,212.5C 285.091,213.151 285.757,213.818 286.5,214.5C 305.201,215.558 323.868,217.058 342.5,219C 364.951,221.091 386.951,225.758 408.5,233C 414.159,234.476 418.159,237.81 420.5,243C 415.66,256.831 405.993,265.497 391.5,269C 380.236,271.649 368.902,273.983 357.5,276C 297.94,283.233 238.273,284.233 178.5,279C 147.009,276.359 116.009,271.026 85.5,263C 78.8821,260.611 73.7154,256.444 70,250.5C 69.1833,245.619 71.0166,242.119 75.5,240C 104.173,227.365 134.173,220.532 165.5,219.5C 144.135,222.21 123.135,227.043 102.5,234C 98.0341,236.472 94.2008,239.638 91,243.5C 88.5726,249.175 90.0726,253.675 95.5,257C 105.868,261.259 116.535,264.593 127.5,267C 198.442,280.796 269.776,283.129 341.5,274C 360.096,273.361 376.762,267.527 391.5,256.5C 393.143,254.023 394.976,251.69 397,249.5C 397.093,245.752 397.26,242.086 397.5,238.5C 395.841,237.183 394.674,235.517 394,233.5C 379.728,227.724 364.895,224.057 349.5,222.5C 328.157,218.909 306.49,217.076 284.5,217C 282.942,216.79 281.609,216.29 280.5,215.5C 283.115,211.991 284.115,207.991 283.5,203.5 Z"/></g>
<g><path style="opacity:1" fill="#dbdbdb" d="M 210.5,215.5 C 210.5,216.5 210.5,217.5 210.5,218.5C 190.274,219.415 170.274,221.415 150.5,224.5C 137.188,225.716 124.854,229.716 113.5,236.5C 111.167,239.167 108.833,241.833 106.5,244.5C 106.907,247.929 107.907,251.095 109.5,254C 139.479,265.13 170.479,271.797 202.5,274C 254.686,279.671 306.353,276.671 357.5,265C 365.882,262.264 372.882,257.597 378.5,251C 380.53,242.393 378.364,235.226 372,229.5C 364.253,227.529 356.753,225.196 349.5,222.5C 364.895,224.057 379.728,227.724 394,233.5C 394.674,235.517 395.841,237.183 397.5,238.5C 397.26,242.086 397.093,245.752 397,249.5C 394.976,251.69 393.143,254.023 391.5,256.5C 376.762,267.527 360.096,273.361 341.5,274C 269.776,283.129 198.442,280.796 127.5,267C 116.535,264.593 105.868,261.259 95.5,257C 90.0726,253.675 88.5726,249.175 91,243.5C 94.2008,239.638 98.0341,236.472 102.5,234C 123.135,227.043 144.135,222.21 165.5,219.5C 180.224,216.697 195.224,215.364 210.5,215.5 Z"/></g>
<g><path style="opacity:1" fill="#d1d1d1" d="M 280.5,215.5 C 281.609,216.29 282.942,216.79 284.5,217C 306.49,217.076 328.157,218.909 349.5,222.5C 356.753,225.196 364.253,227.529 372,229.5C 378.364,235.226 380.53,242.393 378.5,251C 372.882,257.597 365.882,262.264 357.5,265C 306.353,276.671 254.686,279.671 202.5,274C 170.479,271.797 139.479,265.13 109.5,254C 107.907,251.095 106.907,247.929 106.5,244.5C 108.833,241.833 111.167,239.167 113.5,236.5C 124.854,229.716 137.188,225.716 150.5,224.5C 139.361,227.22 129.027,231.887 119.5,238.5C 119.023,239.478 118.357,240.311 117.5,241C 117.898,243.905 118.398,247.072 119,250.5C 119.523,252.223 120.523,253.556 122,254.5C 160.018,267.702 199.185,274.202 239.5,274C 278.074,275.418 316.074,271.418 353.5,262C 363.306,257.861 368.972,250.528 370.5,240C 368.12,233.289 363.453,228.956 356.5,227C 332.145,221.564 307.478,218.898 282.5,219C 280.934,218.392 279.6,217.558 278.5,216.5C 279.167,216.167 279.833,215.833 280.5,215.5 Z"/></g>
<g><path style="opacity:1" fill="#c6c6c6" d="M 233.5,213.5 C 238.924,215.792 244.59,216.126 250.5,214.5C 251.308,214.808 251.975,215.308 252.5,216C 258.863,216.247 265.196,216.747 271.5,217.5C 272.416,217.457 273.083,217.124 273.5,216.5C 275.167,216.5 276.833,216.5 278.5,216.5C 279.6,217.558 280.934,218.392 282.5,219C 307.478,218.898 332.145,221.564 356.5,227C 363.453,228.956 368.12,233.289 370.5,240C 368.972,250.528 363.306,257.861 353.5,262C 316.074,271.418 278.074,275.418 239.5,274C 199.185,274.202 160.018,267.702 122,254.5C 120.523,253.556 119.523,252.223 119,250.5C 118.398,247.072 117.898,243.905 117.5,241C 118.357,240.311 119.023,239.478 119.5,238.5C 129.027,231.887 139.361,227.22 150.5,224.5C 170.274,221.415 190.274,219.415 210.5,218.5C 210.5,219.5 210.5,220.5 210.5,221.5C 196.766,221.64 183.1,222.64 169.5,224.5C 157.971,225.1 147.971,229.267 139.5,237C 138.528,240.088 138.528,243.421 139.5,247C 144.797,253.271 151.463,257.604 159.5,260C 187.712,267.095 216.379,270.262 245.5,269.5C 277.952,269.65 309.618,264.817 340.5,255C 343.005,253.247 345.671,251.747 348.5,250.5C 349.832,246.506 351.166,242.506 352.5,238.5C 345.481,226.825 335.148,221.825 321.5,223.5C 307.497,222.818 293.497,221.985 279.5,221C 276.124,219.101 272.457,218.268 268.5,218.5C 264.888,217.489 261.221,217.322 257.5,218C 256.748,218.671 256.414,219.504 256.5,220.5C 255.596,221.209 255.263,222.209 255.5,223.5C 254.041,223.567 252.708,223.234 251.5,222.5C 251.276,218.452 249.109,216.785 245,217.5C 240.377,218.393 235.877,219.727 231.5,221.5C 230.075,223.031 229.409,222.698 229.5,220.5C 232.48,219.171 233.813,216.837 233.5,213.5 Z"/></g>
<g><path style="opacity:1" fill="#bebebe" d="M 321.5,223.5 C 335.148,221.825 345.481,226.825 352.5,238.5C 351.166,242.506 349.832,246.506 348.5,250.5C 345.671,251.747 343.005,253.247 340.5,255C 309.618,264.817 277.952,269.65 245.5,269.5C 216.379,270.262 187.712,267.095 159.5,260C 151.463,257.604 144.797,253.271 139.5,247C 138.528,243.421 138.528,240.088 139.5,237C 147.971,229.267 157.971,225.1 169.5,224.5C 163.021,226.734 156.687,229.568 150.5,233C 149.299,233.903 148.465,235.069 148,236.5C 147.333,240.167 147.333,243.833 148,247.5C 154.225,253.865 161.725,258.031 170.5,260C 218.987,270.541 267.32,269.874 315.5,258C 325.544,256.391 334.21,252.225 341.5,245.5C 342.926,243.063 344.259,240.563 345.5,238C 339.813,229.324 331.813,224.49 321.5,223.5 Z"/></g>
<g><path style="opacity:1" fill="#b6b6b6" d="M 268.5,218.5 C 272.457,218.268 276.124,219.101 279.5,221C 293.497,221.985 307.497,222.818 321.5,223.5C 331.813,224.49 339.813,229.324 345.5,238C 344.259,240.563 342.926,243.063 341.5,245.5C 334.21,252.225 325.544,256.391 315.5,258C 267.32,269.874 218.987,270.541 170.5,260C 161.725,258.031 154.225,253.865 148,247.5C 147.333,243.833 147.333,240.167 148,236.5C 148.465,235.069 149.299,233.903 150.5,233C 156.687,229.568 163.021,226.734 169.5,224.5C 183.1,222.64 196.766,221.64 210.5,221.5C 210.5,222.167 210.5,222.833 210.5,223.5C 196.939,224.26 183.605,226.427 170.5,230C 167.098,231.4 164.264,233.567 162,236.5C 162.015,239.57 162.682,242.57 164,245.5C 172.194,251.01 181.028,255.177 190.5,258C 232.001,264.338 273.001,262.005 313.5,251C 320.485,248.361 325.485,243.694 328.5,237C 328.01,235.018 327.01,233.351 325.5,232C 310.12,226.024 294.453,222.858 278.5,222.5C 277.833,222.5 277.167,222.5 276.5,222.5C 273.596,221.715 270.93,220.381 268.5,218.5 Z"/></g>
<g><path style="opacity:1" fill="#ababab" d="M 278.5,222.5 C 294.453,222.858 310.12,226.024 325.5,232C 327.01,233.351 328.01,235.018 328.5,237C 325.485,243.694 320.485,248.361 313.5,251C 273.001,262.005 232.001,264.338 190.5,258C 181.028,255.177 172.194,251.01 164,245.5C 162.682,242.57 162.015,239.57 162,236.5C 164.264,233.567 167.098,231.4 170.5,230C 183.605,226.427 196.939,224.26 210.5,223.5C 210.5,224.167 210.5,224.833 210.5,225.5C 199.368,226.543 188.368,228.376 177.5,231C 174.241,232.211 171.408,234.044 169,236.5C 168.07,239.85 168.903,242.683 171.5,245C 186.576,253.622 202.909,257.956 220.5,258C 247.772,258.896 274.772,256.563 301.5,251C 308.659,249.173 314.826,245.673 320,240.5C 321.538,235.88 320.038,232.713 315.5,231C 304.361,227.921 293.027,225.921 281.5,225C 280.058,224.623 279.058,223.79 278.5,222.5 Z"/></g>
<g><path style="opacity:1" fill="#2e2d2e" d="M 268.5,218.5 C 270.93,220.381 273.596,221.715 276.5,222.5C 274.5,223.833 272.833,225.5 271.5,227.5C 268.157,228.059 265.157,229.392 262.5,231.5C 260.851,229.35 259.018,227.35 257,225.5C 256.506,223.866 256.34,222.199 256.5,220.5C 256.414,219.504 256.748,218.671 257.5,218C 261.221,217.322 264.888,217.489 268.5,218.5 Z"/></g>
<g><path style="opacity:1" fill="#a8a7a8" d="M 259.5,219.5 C 260.833,219.5 262.167,219.5 263.5,219.5C 263.5,220.833 263.5,222.167 263.5,223.5C 262.167,223.5 260.833,223.5 259.5,223.5C 259.5,222.167 259.5,220.833 259.5,219.5 Z"/></g>
<g><path style="opacity:1" fill="#2f2e2f" d="M 251.5,222.5 C 250.333,226.147 248.166,229.147 245,231.5C 241.518,229.67 238.018,227.836 234.5,226C 232.859,224.871 231.859,223.371 231.5,221.5C 235.877,219.727 240.377,218.393 245,217.5C 249.109,216.785 251.276,218.452 251.5,222.5 Z"/></g>
<g><path style="opacity:1" fill="#9f9e9f" d="M 243.5,219.5 C 246.95,218.756 248.616,220.09 248.5,223.5C 246.833,223.5 245.167,223.5 243.5,223.5C 243.5,222.167 243.5,220.833 243.5,219.5 Z"/></g>
<g><path style="opacity:1" fill="#9f9f9f" d="M 276.5,222.5 C 277.167,222.5 277.833,222.5 278.5,222.5C 279.058,223.79 280.058,224.623 281.5,225C 293.027,225.921 304.361,227.921 315.5,231C 320.038,232.713 321.538,235.88 320,240.5C 314.826,245.673 308.659,249.173 301.5,251C 274.772,256.563 247.772,258.896 220.5,258C 202.909,257.956 186.576,253.622 171.5,245C 168.903,242.683 168.07,239.85 169,236.5C 171.408,234.044 174.241,232.211 177.5,231C 188.368,228.376 199.368,226.543 210.5,225.5C 210.5,226.167 210.833,226.5 211.5,226.5C 211.557,227.609 211.89,228.609 212.5,229.5C 211.548,231.112 211.214,232.612 211.5,234C 208.141,234.771 204.808,235.605 201.5,236.5C 200.167,237.5 200.167,238.5 201.5,239.5C 205.5,241.544 209.667,243.21 214,244.5C 214.333,243.833 214.667,243.167 215,242.5C 216.44,244.046 218.273,244.879 220.5,245C 219.04,245.811 218.707,246.645 219.5,247.5C 220.981,246.52 222.315,245.353 223.5,244C 225.134,243.506 226.801,243.34 228.5,243.5C 231.221,243.963 233.888,244.629 236.5,245.5C 237.952,246.713 239.286,246.38 240.5,244.5C 241.176,245.602 241.842,246.602 242.5,247.5C 246.649,248.08 250.316,247.414 253.5,245.5C 253.693,241.551 254.193,241.551 255,245.5C 255.383,244.944 255.883,244.611 256.5,244.5C 256.783,245.289 257.283,245.956 258,246.5C 261.792,245.404 265.625,244.404 269.5,243.5C 272.482,243.896 275.149,243.229 277.5,241.5C 278.916,243.139 280.583,243.973 282.5,244C 280.845,242.556 280.178,240.722 280.5,238.5C 282.924,238.808 285.257,238.474 287.5,237.5C 286.726,236.289 285.893,236.289 285,237.5C 283.887,236.24 283.72,235.073 284.5,234C 283.551,233.383 282.718,233.549 282,234.5C 281.722,233.584 281.222,232.918 280.5,232.5C 279.833,231.167 278.833,230.167 277.5,229.5C 275.5,228.833 273.5,228.167 271.5,227.5C 272.833,225.5 274.5,223.833 276.5,222.5 Z"/></g>
<g><path style="opacity:1" fill="#262626" d="M 232.5,206.5 C 232.674,208.861 233.007,211.194 233.5,213.5C 233.813,216.837 232.48,219.171 229.5,220.5C 228.427,221.251 228.26,222.251 229,223.5C 230.353,224.685 231.52,226.019 232.5,227.5C 228.563,231.039 225.896,235.372 224.5,240.5C 219.828,237.492 215.828,233.825 212.5,229.5C 211.89,228.609 211.557,227.609 211.5,226.5C 210.88,222.698 211.714,219.365 214,216.5C 216.253,216.631 218.419,216.965 220.5,217.5C 220.322,216.044 221.156,214.711 223,213.5C 224.789,215.229 226.956,215.896 229.5,215.5C 229.141,213.234 229.808,211.401 231.5,210C 230.424,208.274 230.257,206.441 231,204.5C 231.278,205.416 231.778,206.082 232.5,206.5 Z"/></g>
<g><path style="opacity:1" fill="#272628" d="M 277.5,229.5 C 278.833,230.167 279.833,231.167 280.5,232.5C 279.685,236.159 277.519,238.826 274,240.5C 271.665,237.834 269.831,234.834 268.5,231.5C 271.193,229.73 274.193,229.063 277.5,229.5 Z"/></g>
<g><path style="opacity:1" fill="#8e8e8e" d="M 229.5,220.5 C 229.409,222.698 230.075,223.031 231.5,221.5C 231.859,223.371 232.859,224.871 234.5,226C 238.018,227.836 241.518,229.67 245,231.5C 248.166,229.147 250.333,226.147 251.5,222.5C 252.708,223.234 254.041,223.567 255.5,223.5C 255.263,222.209 255.596,221.209 256.5,220.5C 256.34,222.199 256.506,223.866 257,225.5C 259.018,227.35 260.851,229.35 262.5,231.5C 265.157,229.392 268.157,228.059 271.5,227.5C 273.5,228.167 275.5,228.833 277.5,229.5C 274.193,229.063 271.193,229.73 268.5,231.5C 269.831,234.834 271.665,237.834 274,240.5C 277.519,238.826 279.685,236.159 280.5,232.5C 281.222,232.918 281.722,233.584 282,234.5C 282.718,233.549 283.551,233.383 284.5,234C 283.72,235.073 283.887,236.24 285,237.5C 285.893,236.289 286.726,236.289 287.5,237.5C 285.257,238.474 282.924,238.808 280.5,238.5C 280.178,240.722 280.845,242.556 282.5,244C 280.583,243.973 278.916,243.139 277.5,241.5C 275.149,243.229 272.482,243.896 269.5,243.5C 269.611,242.883 269.944,242.383 270.5,242C 267.876,239.213 265.876,236.046 264.5,232.5C 259.714,235.252 257.047,239.252 256.5,244.5C 255.883,244.611 255.383,244.944 255,245.5C 254.193,241.551 253.693,241.551 253.5,245.5C 247.686,231.555 244.02,232.222 242.5,247.5C 241.842,246.602 241.176,245.602 240.5,244.5C 239.286,246.38 237.952,246.713 236.5,245.5C 238.403,241.694 240.403,237.694 242.5,233.5C 240.61,231.422 238.276,230.089 235.5,229.5C 232.08,233.674 229.746,238.34 228.5,243.5C 226.801,243.34 225.134,243.506 223.5,244C 222.315,245.353 220.981,246.52 219.5,247.5C 218.707,246.645 219.04,245.811 220.5,245C 218.273,244.879 216.44,244.046 215,242.5C 214.667,243.167 214.333,243.833 214,244.5C 209.667,243.21 205.5,241.544 201.5,239.5C 200.167,238.5 200.167,237.5 201.5,236.5C 204.808,235.605 208.141,234.771 211.5,234C 211.214,232.612 211.548,231.112 212.5,229.5C 215.828,233.825 219.828,237.492 224.5,240.5C 225.896,235.372 228.563,231.039 232.5,227.5C 231.52,226.019 230.353,224.685 229,223.5C 228.26,222.251 228.427,221.251 229.5,220.5 Z"/></g>
<g><path style="opacity:1" fill="#2b2b2b" d="M 251.5,230.5 C 254.95,229.756 256.616,231.09 256.5,234.5C 254.5,234.5 252.5,234.5 250.5,234.5C 250.433,233.041 250.766,231.708 251.5,230.5 Z"/></g>
<g><path style="opacity:1" fill="#242325" d="M 236.5,245.5 C 233.888,244.629 231.221,243.963 228.5,243.5C 229.746,238.34 232.08,233.674 235.5,229.5C 238.276,230.089 240.61,231.422 242.5,233.5C 240.403,237.694 238.403,241.694 236.5,245.5 Z"/></g>
<g><path style="opacity:1" fill="#272627" d="M 269.5,243.5 C 265.625,244.404 261.792,245.404 258,246.5C 257.283,245.956 256.783,245.289 256.5,244.5C 257.047,239.252 259.714,235.252 264.5,232.5C 265.876,236.046 267.876,239.213 270.5,242C 269.944,242.383 269.611,242.883 269.5,243.5 Z"/></g>
<g><path style="opacity:1" fill="#2a292a" d="M 253.5,245.5 C 250.316,247.414 246.649,248.08 242.5,247.5C 244.02,232.222 247.686,231.555 253.5,245.5 Z"/></g>
</svg>
